<?xml version="1.0" standalone="no"?>
<!DOCTYPE svg PUBLIC "-//W3C//DTD SVG 20010904//EN"
 "http://www.w3.org/TR/2001/REC-SVG-20010904/DTD/svg10.dtd">
<svg version="1.0" xmlns="http://www.w3.org/2000/svg"
 width="2000.000000pt" height="2000.000000pt" viewBox="0 0 2000.000000 2000.000000"
 preserveAspectRatio="xMidYMid meet">
<metadata>
Created by potrace 1.14, written by Peter Selinger 2001-2017
</metadata>
<g transform="translate(0.000000,2000.000000) scale(0.100000,-0.100000)"
fill="#000000" stroke="none">
<path d="M9687 19994 c-1 -1 -69 -5 -152 -8 -182 -9 -329 -18 -450 -30 -57 -6
-170 -17 -207 -22 -119 -13 -281 -34 -303 -38 -11 -2 -42 -7 -70 -10 -27 -4
-61 -8 -75 -11 -14 -3 -41 -7 -60 -10 -37 -6 -131 -22 -166 -29 -12 -2 -39 -7
-60 -11 -76 -11 -501 -106 -614 -135 -63 -17 -125 -33 -137 -35 -127 -28 -627
-189 -899 -290 -437 -163 -969 -410 -1359 -630 -27 -16 -59 -33 -70 -39 -17
-9 -203 -119 -270 -159 -94 -57 -368 -236 -510 -334 -508 -349 -1136 -891
-1565 -1352 -258 -277 -512 -576 -659 -776 -25 -33 -48 -62 -51 -65 -4 -3 -24
-30 -45 -60 -21 -30 -63 -87 -92 -127 -144 -195 -444 -663 -560 -873 -11 -19
-37 -66 -59 -105 -21 -38 -49 -88 -61 -110 -32 -56 -255 -506 -293 -590 -44
-95 -171 -396 -200 -470 -13 -33 -29 -73 -36 -90 -100 -239 -275 -801 -373
-1195 -43 -175 -128 -578 -145 -690 -3 -19 -14 -96 -26 -170 -12 -74 -23 -148
-25 -165 -2 -16 -6 -46 -9 -65 -3 -19 -8 -60 -11 -90 -3 -30 -8 -71 -10 -90
-2 -19 -7 -62 -10 -95 -3 -33 -8 -80 -11 -105 -2 -25 -7 -83 -10 -130 -3 -47
-7 -101 -9 -120 -25 -244 -24 -1096 0 -1335 2 -22 6 -78 9 -125 5 -80 10 -131
21 -225 2 -22 7 -71 10 -110 4 -38 8 -77 10 -85 2 -8 7 -42 10 -75 8 -69 73
-493 80 -515 2 -8 7 -33 11 -55 3 -22 14 -80 24 -130 11 -49 21 -101 24 -115
3 -14 17 -77 31 -140 15 -63 28 -122 30 -130 43 -202 198 -715 316 -1045 48
-133 56 -155 79 -207 5 -13 34 -84 64 -159 30 -75 67 -162 81 -195 15 -32 32
-72 40 -89 86 -198 274 -573 400 -800 420 -751 928 -1437 1525 -2058 108 -112
308 -311 370 -367 19 -18 58 -53 85 -79 28 -25 88 -80 135 -121 47 -41 87 -78
90 -81 14 -16 262 -218 380 -309 74 -58 141 -110 148 -117 7 -7 16 -13 20 -13
4 0 21 -13 39 -28 17 -15 71 -54 118 -87 48 -33 93 -65 99 -70 12 -11 358
-241 441 -292 298 -186 778 -447 1060 -575 44 -20 109 -50 145 -66 543 -249
1255 -486 1865 -622 149 -33 307 -66 365 -75 19 -3 55 -10 80 -15 64 -14 303
-51 420 -66 19 -2 46 -6 60 -9 14 -2 54 -7 90 -11 36 -3 72 -7 80 -9 27 -5
176 -19 320 -30 52 -4 111 -9 130 -10 230 -24 1106 -24 1340 0 19 2 76 6 125
10 98 7 116 9 220 20 39 4 84 8 100 10 54 5 149 16 175 20 14 2 49 7 79 10 30
4 63 9 75 11 12 2 39 7 61 9 35 5 94 14 182 30 16 3 57 10 92 15 36 6 67 13
70 15 4 2 27 6 51 9 50 7 98 17 335 71 88 20 167 38 175 40 264 59 1142 337
1184 376 6 5 16 9 24 9 8 0 28 6 45 14 18 8 97 41 177 74 143 59 176 73 355
155 102 47 504 249 580 292 321 180 488 281 720 434 227 149 613 428 689 496
6 6 45 37 86 70 308 243 771 672 1020 945 18 19 53 58 79 85 235 253 514 596
752 925 138 191 354 518 444 672 292 500 448 805 639 1253 42 97 76 179 76
183 1 4 9 25 20 47 11 22 19 46 20 53 0 7 5 20 10 30 10 16 76 190 85 222 3 8
35 107 73 220 60 177 87 263 98 305 1 6 14 48 28 95 24 83 104 385 112 425 2
11 19 91 39 177 19 86 38 174 41 195 3 21 8 41 10 44 2 4 6 31 10 60 3 30 8
57 10 60 3 6 39 215 49 284 3 22 8 58 11 80 3 22 7 51 9 65 2 14 6 48 10 75 3
28 8 61 10 75 2 14 6 52 10 85 3 33 8 83 11 110 10 103 13 132 19 220 4 50 8
106 10 125 19 177 25 866 11 1140 -11 202 -21 354 -30 445 -2 17 -7 64 -10
105 -4 41 -9 86 -11 100 -2 14 -6 48 -10 75 -3 28 -7 68 -10 90 -3 22 -8 58
-10 80 -3 22 -7 51 -10 65 -2 14 -7 45 -10 70 -6 41 -30 191 -41 250 -2 14 -7
41 -10 60 -3 19 -16 87 -29 150 -13 63 -26 126 -29 140 -33 171 -133 556 -213
820 -60 198 -207 625 -243 705 -5 11 -23 56 -40 100 -18 44 -36 89 -40 100 -5
11 -44 99 -86 195 -71 162 -257 549 -321 665 -129 236 -258 459 -396 679 -28
45 -218 328 -277 411 -111 160 -446 595 -480 625 -3 3 -30 34 -60 70 -302 359
-741 802 -1080 1090 -47 40 -107 92 -135 115 -78 67 -213 176 -285 230 -36 27
-69 53 -75 57 -5 4 -23 18 -40 31 -75 59 -264 193 -420 298 -162 109 -460 299
-469 299 -2 0 -41 23 -85 50 -44 28 -83 50 -86 50 -3 0 -22 10 -43 23 -67 42
-153 88 -407 216 -254 129 -304 153 -525 248 -69 29 -134 58 -145 63 -29 14
-354 140 -361 140 -3 0 -20 7 -37 14 -50 23 -435 149 -612 201 -250 73 -663
175 -850 210 -268 49 -381 69 -470 81 -27 3 -59 8 -70 10 -44 8 -233 33 -305
39 -36 3 -81 8 -100 10 -109 13 -335 30 -530 41 -104 6 -797 13 -803 8z m848
-238 c39 -3 108 -8 155 -11 104 -7 192 -14 245 -20 22 -2 69 -7 105 -10 36 -3
97 -10 135 -16 66 -9 95 -12 190 -24 22 -3 51 -7 65 -10 14 -2 45 -7 70 -10
25 -3 68 -10 95 -15 28 -5 66 -11 85 -14 46 -7 320 -60 435 -85 353 -76 955
-252 1255 -368 36 -13 112 -43 170 -65 58 -22 114 -44 125 -49 11 -4 106 -45
210 -90 105 -44 289 -129 410 -189 199 -97 263 -130 490 -255 272 -149 707
-429 1001 -646 188 -138 516 -400 644 -514 202 -181 297 -271 490 -465 124
-124 248 -250 275 -280 106 -115 266 -299 360 -415 53 -66 105 -129 114 -140
9 -11 39 -49 66 -85 52 -68 64 -83 80 -103 75 -89 362 -508 506 -742 223 -359
487 -857 617 -1165 11 -25 29 -67 42 -95 40 -90 48 -108 116 -280 91 -230 175
-467 235 -665 28 -91 57 -184 65 -207 7 -23 16 -52 19 -65 2 -13 29 -117 59
-233 30 -115 57 -221 60 -235 3 -14 23 -110 45 -215 21 -104 42 -206 45 -225
3 -19 12 -73 20 -120 8 -47 20 -121 26 -165 6 -44 13 -91 15 -105 24 -155 47
-367 60 -545 4 -55 8 -112 10 -128 26 -211 26 -1237 1 -1375 -2 -9 -7 -66 -11
-127 -4 -60 -8 -117 -10 -125 -1 -8 -6 -46 -9 -85 -9 -95 -16 -155 -21 -185
-3 -14 -7 -52 -11 -85 -3 -33 -8 -69 -10 -80 -2 -10 -6 -37 -9 -60 -8 -56 -17
-116 -21 -140 -2 -11 -9 -47 -14 -80 -5 -33 -12 -69 -14 -80 -2 -11 -7 -40
-12 -65 -4 -25 -8 -47 -9 -50 -1 -3 -5 -25 -10 -50 -5 -25 -9 -47 -10 -50 -2
-8 -16 -74 -19 -90 -20 -119 -139 -579 -203 -790 -90 -295 -274 -807 -352
-975 -10 -22 -31 -69 -46 -105 -106 -254 -384 -798 -533 -1044 -23 -37 -42
-70 -42 -72 0 -6 -265 -418 -308 -479 -24 -33 -55 -78 -70 -100 -38 -56 -217
-299 -269 -365 -24 -30 -47 -59 -51 -65 -18 -24 -87 -110 -92 -115 -3 -3 -21
-25 -40 -50 -19 -25 -37 -47 -41 -50 -3 -3 -34 -39 -68 -80 -237 -284 -703
-759 -977 -995 -38 -33 -74 -64 -80 -70 -6 -5 -32 -28 -59 -50 -26 -22 -53
-45 -59 -51 -36 -34 -395 -315 -512 -400 -493 -357 -1076 -705 -1549 -924 -33
-15 -104 -49 -158 -74 -53 -25 -99 -46 -101 -46 -3 0 -33 -13 -68 -28 -35 -16
-99 -44 -143 -61 -44 -18 -89 -37 -100 -42 -144 -62 -553 -205 -825 -288 -245
-74 -692 -187 -861 -216 -19 -3 -53 -10 -77 -16 -23 -5 -59 -12 -78 -15 -20
-3 -46 -8 -58 -10 -11 -2 -37 -7 -56 -10 -19 -3 -46 -7 -60 -10 -59 -10 -205
-32 -260 -39 -25 -3 -54 -7 -65 -9 -11 -2 -49 -7 -85 -11 -36 -3 -72 -8 -80
-10 -8 -2 -47 -7 -86 -10 -39 -3 -86 -7 -104 -10 -18 -2 -74 -7 -124 -11 -50
-3 -107 -8 -126 -9 -290 -27 -1119 -27 -1395 0 -22 2 -74 7 -115 10 -109 9
-214 19 -305 30 -16 2 -57 6 -90 10 -60 7 -84 10 -140 19 -16 2 -66 10 -110
16 -119 17 -405 68 -530 95 -60 13 -124 26 -142 30 -149 26 -697 179 -973 272
-213 71 -544 196 -685 258 -16 7 -84 37 -150 65 -127 55 -544 259 -680 333
-471 254 -916 544 -1340 871 -117 90 -282 222 -295 236 -3 3 -50 43 -105 90
-100 85 -125 106 -264 234 -98 90 -466 459 -555 556 -38 41 -85 93 -106 115
-146 158 -442 527 -617 770 -68 94 -127 175 -131 180 -7 9 -184 277 -247 375
-255 394 -575 1025 -783 1541 -115 284 -296 812 -337 984 -3 11 -31 124 -64
250 -70 277 -99 408 -145 665 -47 268 -83 517 -101 705 -3 33 -8 76 -10 95 -4
32 -9 85 -20 235 -27 355 -27 1201 0 1410 2 17 7 68 10 115 8 110 19 219 30
310 27 220 33 266 60 435 8 50 17 107 21 129 7 50 12 74 18 94 3 9 7 33 10 52
10 59 16 89 57 275 22 99 42 188 44 198 2 10 7 27 10 37 3 10 8 28 10 41 2 12
11 45 19 73 8 28 17 62 20 76 14 67 100 351 172 569 63 189 167 464 235 626
18 44 34 82 34 85 1 3 10 25 22 50 11 25 35 79 53 120 47 110 238 497 310 630
35 63 75 138 90 165 27 50 138 236 220 370 44 73 287 438 343 515 32 45 231
311 254 340 46 58 169 209 186 230 12 14 48 57 80 95 165 196 276 315 547 585
258 258 320 316 610 564 150 129 508 403 670 515 143 98 390 261 480 316 52
31 107 66 122 76 15 11 29 19 32 19 2 0 39 21 82 46 94 55 403 224 410 224 3
0 18 8 32 18 15 10 52 29 82 42 30 13 69 33 85 45 17 11 32 19 35 18 5 -1 35
12 190 85 158 74 459 200 605 252 28 10 82 31 120 45 129 49 608 203 683 220
9 2 60 16 112 30 145 41 416 105 540 130 41 8 86 17 100 20 100 20 166 32 220
41 19 2 46 7 60 10 38 7 68 12 155 24 44 6 91 13 105 15 81 13 213 29 325 40
33 3 76 8 95 10 43 6 166 16 240 20 30 2 116 6 190 10 74 4 136 9 138 10 6 5
831 -3 907 -9z"/>
<path d="M9718 19595 c-2 -1 -73 -5 -158 -9 -85 -4 -180 -8 -210 -11 -30 -2
-93 -7 -140 -10 -47 -3 -96 -8 -110 -10 -14 -2 -59 -6 -100 -10 -41 -4 -86 -8
-100 -10 -14 -2 -50 -7 -80 -10 -79 -9 -140 -17 -295 -41 -87 -13 -252 -42
-337 -59 -16 -3 -40 -7 -55 -10 -22 -4 -90 -18 -143 -30 -3 0 -21 -4 -40 -8
-68 -14 -65 -13 -265 -62 -82 -21 -188 -48 -235 -62 -47 -13 -93 -26 -103 -28
-83 -18 -499 -155 -712 -236 -243 -91 -293 -112 -407 -163 -31 -14 -59 -26
-62 -26 -4 0 -54 -22 -112 -50 -58 -27 -108 -50 -111 -50 -2 0 -98 -46 -211
-103 -432 -216 -873 -479 -1252 -745 -75 -53 -370 -272 -386 -287 -6 -5 -29
-23 -50 -40 -58 -46 -208 -168 -214 -174 -3 -3 -32 -28 -65 -55 -33 -27 -64
-54 -70 -60 -5 -6 -30 -29 -55 -50 -244 -212 -619 -587 -835 -836 -26 -30 -54
-62 -62 -70 -45 -49 -219 -261 -320 -390 -276 -353 -568 -791 -782 -1173 -37
-67 -79 -140 -91 -162 -32 -56 -199 -390 -255 -510 -75 -159 -188 -427 -260
-616 -53 -136 -219 -614 -222 -639 -2 -15 -27 -101 -40 -140 -41 -124 -169
-669 -208 -885 -26 -145 -45 -257 -50 -295 -3 -25 -8 -52 -10 -60 -2 -8 -7
-40 -11 -70 -3 -30 -7 -64 -9 -75 -1 -11 -6 -49 -10 -85 -4 -36 -8 -72 -10
-80 -3 -16 -17 -148 -20 -190 -1 -14 -5 -70 -9 -125 -4 -55 -9 -116 -11 -135
-25 -220 -25 -975 0 -1295 2 -27 6 -90 10 -140 3 -49 7 -101 9 -115 3 -14 7
-61 11 -105 4 -44 8 -87 10 -95 1 -8 6 -42 9 -75 4 -33 9 -71 11 -85 2 -14 6
-47 10 -75 3 -27 8 -57 10 -65 2 -8 6 -35 9 -60 3 -25 8 -56 11 -70 3 -14 8
-45 11 -70 3 -25 7 -52 9 -60 2 -8 7 -31 10 -50 3 -19 8 -42 10 -50 2 -8 7
-31 10 -50 7 -46 13 -78 39 -197 9 -40 18 -87 21 -105 3 -17 8 -34 10 -38 2
-3 6 -18 9 -33 4 -15 8 -37 11 -49 3 -13 7 -32 9 -43 38 -175 176 -639 271
-911 189 -537 446 -1098 718 -1569 38 -66 77 -134 87 -151 63 -109 353 -560
370 -574 3 -3 45 -61 94 -130 383 -539 894 -1104 1431 -1581 27 -24 55 -48 61
-54 6 -5 35 -30 64 -55 30 -25 70 -59 90 -76 188 -163 548 -430 835 -621 177
-118 459 -293 472 -293 3 0 21 -11 39 -25 18 -14 36 -25 39 -25 4 0 37 -17 73
-38 223 -129 553 -292 852 -422 80 -34 169 -73 198 -86 29 -13 55 -24 58 -24
3 0 58 -21 122 -46 65 -26 205 -77 312 -114 107 -37 202 -70 210 -73 8 -3 24
-7 35 -10 11 -3 74 -21 140 -41 66 -20 136 -40 155 -46 19 -5 67 -18 105 -29
39 -11 117 -31 175 -45 210 -50 316 -74 355 -82 22 -4 45 -8 50 -9 85 -19 202
-40 330 -61 17 -2 55 -9 85 -14 30 -5 73 -11 95 -15 22 -3 51 -7 65 -10 14 -2
45 -6 70 -9 25 -3 65 -8 90 -11 25 -3 61 -7 80 -10 19 -2 64 -7 100 -10 36 -3
79 -8 95 -10 17 -2 71 -6 120 -10 50 -3 108 -8 130 -10 268 -24 1012 -25 1314
0 25 2 83 6 130 10 47 3 97 8 111 10 14 2 57 6 95 10 39 3 84 8 100 10 33 4
94 12 170 20 28 3 61 8 75 10 14 2 70 11 125 20 55 8 114 17 130 20 34 6 87
15 125 21 699 122 1520 376 2204 684 664 298 1365 716 1897 1129 25 20 60 47
79 61 18 14 38 30 44 35 6 6 45 37 86 70 64 50 240 198 276 230 6 5 44 39 84
75 170 152 462 436 610 595 96 103 224 245 256 285 16 19 31 37 34 40 38 37
242 290 371 460 148 196 215 291 346 490 152 231 228 353 312 503 11 20 31 54
42 75 411 719 754 1581 954 2397 42 170 88 379 101 448 3 18 9 50 14 72 5 22
11 58 14 80 6 38 32 191 41 245 6 31 45 320 50 369 2 20 7 65 10 101 3 36 8
79 10 95 2 17 7 71 10 120 4 50 9 113 11 140 18 227 24 827 11 1090 -12 220
-16 296 -22 353 -3 28 -7 78 -10 110 -3 31 -8 75 -10 97 -3 22 -7 67 -10 100
-3 33 -8 71 -10 85 -3 14 -7 48 -10 75 -3 28 -8 57 -10 65 -2 8 -7 40 -10 70
-3 30 -15 105 -25 165 -11 61 -22 126 -25 145 -38 233 -161 748 -249 1040 -77
259 -208 638 -271 785 -7 17 -49 116 -93 220 -160 377 -302 662 -514 1030
-123 215 -116 204 -180 303 -27 40 -48 75 -48 77 0 4 -137 209 -229 340 -119
172 -388 524 -485 635 -17 20 -50 58 -73 85 -261 312 -676 732 -992 1005 -35
30 -69 60 -75 65 -113 103 -446 363 -651 509 -83 58 -154 110 -160 114 -77 60
-531 344 -695 435 -25 13 -88 48 -140 77 -168 94 -712 360 -734 360 -3 0 -33
13 -68 29 -171 80 -563 228 -838 316 -123 39 -306 95 -329 100 -9 2 -77 20
-151 41 -74 20 -142 38 -150 40 -254 58 -582 127 -665 139 -44 6 -52 7 -180
29 -49 9 -112 18 -140 21 -27 3 -61 8 -75 10 -78 11 -110 15 -160 20 -30 3
-71 7 -90 10 -19 2 -69 7 -110 10 -41 4 -86 8 -100 10 -14 2 -81 6 -150 10
-69 4 -147 9 -175 11 -52 5 -753 12 -757 9z"/>
</g>
</svg>
