<svg xmlns="http://www.w3.org/2000/svg" version="1.1" xmlns:xlink="http://www.w3.org/1999/xlink" xmlns:svgjs="http://svgjs.dev/svgjs" width="1500" height="1500" viewBox="0 0 1500 1500"><g transform="matrix(1,0,0,1,-0.21332335329316265,-0.21332335329350371)"><svg viewBox="0 0 334 334" data-background-color="#121735" preserveAspectRatio="xMidYMid meet" height="1500" width="1500" xmlns="http://www.w3.org/2000/svg" xmlns:xlink="http://www.w3.org/1999/xlink"><g id="tight-bounds" transform="matrix(1,0,0,1,0.04749999999998522,0.04750000000001364)"><svg viewBox="0 0 333.90454557049503 333.90454557049503" height="333.90454557049503" width="333.90454557049503"><g><svg></svg></g><g><svg viewBox="0 0 333.90454557049503 333.90454557049503" height="333.90454557049503" width="333.90454557049503"><g><path d="M0 166.952c0-92.205 74.747-166.952 166.952-166.952 92.205 0 166.952 74.747 166.953 166.952 0 92.205-74.747 166.952-166.953 166.953-92.205 0-166.952-74.747-166.952-166.953zM166.952 330.105c90.107 0 163.153-73.046 163.153-163.153 0-90.107-73.046-163.153-163.153-163.152-90.107 0-163.153 73.046-163.152 163.152 0 90.107 73.046 163.153 163.152 163.153z" data-fill-palette-color="tertiary" fill="#2e3660" stroke="transparent"></path><ellipse rx="160.27418187383762" ry="160.27418187383762" cx="166.95227278524752" cy="166.95227278524752" fill="#2e3660" stroke="transparent" stroke-width="0" fill-opacity="1" data-fill-palette-color="tertiary"></ellipse></g><g transform="matrix(1,0,0,1,71.21012054941481,71.17305217166896)"><svg viewBox="0 0 191.4843044716654 191.55844122715712" height="191.55844122715712" width="191.4843044716654"><g><svg viewBox="0 0 191.4843044716654 191.55844122715712" height="191.55844122715712" width="191.4843044716654"><g><svg viewBox="0 0 213.1584412271571 213.24096953297231" height="191.55844122715712" width="191.4843044716654"><g transform="matrix(1,0,0,1,0,113.77409487686404)"><svg viewBox="0 0 213.1584412271571 99.46687465610827" height="99.46687465610827" width="213.1584412271571"><g id="textblocktransform"><svg viewBox="0 0 213.1584412271571 99.46687465610827" height="99.46687465610827" width="213.1584412271571" id="textblock"><g><svg viewBox="0 0 213.1584412271571 99.46687465610827" height="99.46687465610827" width="213.1584412271571"><g transform="matrix(1,0,0,1,0,0)"><svg width="213.1584412271571" viewBox="113.85 -35.209999999999994 225.91000000000005 102.42" height="99.46687465610827" data-palette-color="#fc76ae"><svg></svg><svg></svg><g class="wordmark-text-0" data-fill-palette-color="quaternary" id="text-0"><path transform="translate(150.34,0)" d="M18.63-13.11v0c-0.313 0.687-0.657 1.51-1.03 2.47-0.373 0.96-0.78 1.96-1.22 3-0.44 1.04-0.907 2.073-1.4 3.1-0.5 1.027-1.02 1.943-1.56 2.75-0.547 0.8-1.11 1.453-1.69 1.96-0.58 0.507-1.17 0.76-1.77 0.76v0c-0.507 0-0.92-0.077-1.24-0.23-0.327-0.16-0.58-0.357-0.76-0.59-0.18-0.233-0.307-0.493-0.38-0.78-0.073-0.287-0.11-0.56-0.11-0.82v0c0-0.393 0.06-0.793 0.18-1.2 0.127-0.407 0.28-0.78 0.46-1.12v0l9.35-17.21c0.407-0.713 0.793-1.277 1.16-1.69 0.367-0.407 0.707-0.707 1.02-0.9 0.32-0.193 0.6-0.31 0.84-0.35 0.247-0.04 0.45-0.06 0.61-0.06v0c0.293 0 0.563 0.1 0.81 0.3 0.247 0.207 0.37 0.577 0.37 1.11v0c0 0.52-0.14 1.237-0.42 2.15-0.273 0.913-0.787 2.087-1.54 3.52v0c1.273-0.1 2.527-0.317 3.76-0.65 1.24-0.333 2.35-0.793 3.33-1.38 0.987-0.587 1.783-1.3 2.39-2.14 0.6-0.833 0.9-1.803 0.9-2.91v0c0-0.98-0.16-1.913-0.48-2.8-0.313-0.887-0.777-1.667-1.39-2.34-0.607-0.68-1.36-1.217-2.26-1.61-0.893-0.4-1.927-0.6-3.1-0.6v0c-1.593 0-2.963 0.15-4.11 0.45-1.147 0.3-2.133 0.693-2.96 1.18-0.82 0.493-1.507 1.057-2.06 1.69-0.553 0.633-1.03 1.277-1.43 1.93-0.4 0.647-0.753 1.29-1.06 1.93-0.307 0.633-0.627 1.193-0.96 1.68-0.333 0.487-0.713 0.88-1.14 1.18-0.42 0.307-0.94 0.46-1.56 0.46v0c-0.8 0-1.39-0.203-1.77-0.61-0.387-0.407-0.58-0.987-0.58-1.74 0-0.747 0.207-1.563 0.62-2.45 0.407-0.887 0.983-1.777 1.73-2.67 0.747-0.9 1.653-1.76 2.72-2.58 1.067-0.82 2.267-1.55 3.6-2.19 1.333-0.633 2.787-1.14 4.36-1.52 1.573-0.387 3.23-0.58 4.97-0.58v0c1.627 0 3.193 0.233 4.7 0.7 1.507 0.467 2.837 1.163 3.99 2.09 1.153 0.927 2.077 2.087 2.77 3.48 0.693 1.387 1.04 3.017 1.04 4.89v0c0 1.713-0.41 3.257-1.23 4.63-0.827 1.373-1.937 2.537-3.33 3.49-1.387 0.953-2.993 1.687-4.82 2.2-1.82 0.513-3.74 0.77-5.76 0.77v0c-0.42 0-0.847-0.01-1.28-0.03-0.433-0.013-0.86-0.053-1.28-0.12zM41.72-14.4v0c-0.08-0.02-0.153-0.03-0.22-0.03-0.06 0-0.133 0-0.22 0v0c-0.613 0-1.19 0.123-1.73 0.37-0.533 0.24-1.027 0.56-1.48 0.96-0.447 0.4-0.843 0.853-1.19 1.36-0.353 0.5-0.667 1-0.94 1.5-0.28 0.493-0.513 0.97-0.7 1.43-0.187 0.453-0.33 0.833-0.43 1.14v0c0.573-0.293 1.163-0.627 1.77-1 0.613-0.373 1.19-0.73 1.73-1.07 0.533-0.34 1-0.65 1.4-0.93 0.4-0.273 0.68-0.46 0.84-0.56v0c0.733-0.453 1.24-0.88 1.52-1.28 0.273-0.4 0.41-0.747 0.41-1.04v0c0-0.247-0.077-0.443-0.23-0.59-0.153-0.147-0.33-0.233-0.53-0.26zM42.6-17.77v0c1.353 0 2.363 0.323 3.03 0.97 0.667 0.653 1 1.557 1 2.71v0c0 0.687-0.18 1.403-0.54 2.15-0.353 0.747-0.97 1.507-1.85 2.28-0.88 0.773-2.057 1.563-3.53 2.37-1.473 0.807-3.317 1.617-5.53 2.43v0c0.08 0.473 0.333 0.843 0.76 1.11 0.42 0.273 0.98 0.41 1.68 0.41v0c0.753 0 1.557-0.11 2.41-0.33 0.853-0.22 1.7-0.503 2.54-0.85 0.833-0.34 1.65-0.71 2.45-1.11 0.8-0.4 1.52-0.777 2.16-1.13 0.64-0.36 1.177-0.67 1.61-0.93 0.433-0.26 0.723-0.423 0.87-0.49v0c0.147-0.1 0.28-0.157 0.4-0.17 0.12-0.013 0.23-0.02 0.33-0.02v0c0.193 0 0.357 0.043 0.49 0.13 0.127 0.087 0.237 0.193 0.33 0.32 0.087 0.12 0.147 0.25 0.18 0.39 0.033 0.14 0.05 0.257 0.05 0.35v0c0 0.147-0.017 0.323-0.05 0.53-0.033 0.2-0.153 0.43-0.36 0.69v0c-0.087 0.087-0.36 0.307-0.82 0.66-0.467 0.36-1.067 0.783-1.8 1.27-0.733 0.487-1.583 1.003-2.55 1.55-0.967 0.547-1.99 1.047-3.07 1.5-1.087 0.46-2.217 0.84-3.39 1.14-1.167 0.3-2.32 0.45-3.46 0.45v0c-0.98 0-1.847-0.187-2.6-0.56-0.76-0.373-1.403-0.877-1.93-1.51-0.527-0.64-0.93-1.373-1.21-2.2-0.273-0.833-0.41-1.703-0.41-2.61v0c0-0.7 0.137-1.47 0.41-2.31 0.28-0.84 0.68-1.683 1.2-2.53 0.52-0.847 1.157-1.673 1.91-2.48 0.76-0.8 1.61-1.51 2.55-2.13 0.947-0.62 1.987-1.117 3.12-1.49 1.127-0.373 2.333-0.56 3.62-0.56zM58.47-13.33v0c-0.767 0-1.507 0.197-2.22 0.59-0.713 0.387-1.347 0.897-1.9 1.53-0.553 0.64-0.993 1.353-1.32 2.14-0.327 0.787-0.49 1.58-0.49 2.38v0c0 0.327 0.02 0.663 0.06 1.01 0.04 0.353 0.133 0.677 0.28 0.97 0.147 0.293 0.353 0.537 0.62 0.73 0.273 0.193 0.637 0.29 1.09 0.29v0c0.36 0 0.78-0.157 1.26-0.47 0.48-0.32 0.977-0.727 1.49-1.22 0.513-0.5 1.013-1.047 1.5-1.64 0.487-0.593 0.927-1.173 1.32-1.74 0.387-0.573 0.703-1.087 0.95-1.54 0.24-0.46 0.36-0.793 0.36-1v0c0-0.313-0.103-0.597-0.31-0.85-0.213-0.247-0.473-0.46-0.78-0.64-0.313-0.18-0.643-0.317-0.99-0.41-0.353-0.087-0.66-0.13-0.92-0.13zM75.39-7.03v0c-0.293 0.273-0.683 0.657-1.17 1.15-0.487 0.487-1.043 1.013-1.67 1.58-0.627 0.573-1.297 1.147-2.01 1.72-0.707 0.58-1.43 1.107-2.17 1.58-0.74 0.473-1.467 0.86-2.18 1.16-0.72 0.3-1.397 0.45-2.03 0.45v0c-0.567 0-1.053-0.123-1.46-0.37-0.413-0.24-0.753-0.557-1.02-0.95-0.267-0.387-0.467-0.83-0.6-1.33-0.127-0.493-0.19-1-0.19-1.52v0c0-0.347 0.023-0.687 0.07-1.02 0.053-0.333 0.137-0.647 0.25-0.94v0c-0.507 0.687-1.083 1.39-1.73 2.11-0.64 0.727-1.33 1.387-2.07 1.98-0.74 0.593-1.513 1.083-2.32 1.47-0.807 0.38-1.623 0.57-2.45 0.57v0c-0.427 0-0.92-0.087-1.48-0.26-0.56-0.167-1.093-0.447-1.6-0.84-0.507-0.387-0.93-0.89-1.27-1.51-0.34-0.62-0.51-1.377-0.51-2.27v0c0-0.667 0.1-1.467 0.3-2.4 0.207-0.927 0.517-1.89 0.93-2.89 0.413-1 0.943-1.987 1.59-2.96 0.64-0.98 1.4-1.857 2.28-2.63 0.88-0.773 1.88-1.4 3-1.88 1.127-0.48 2.38-0.72 3.76-0.72v0c0.72 0 1.347 0.09 1.88 0.27 0.54 0.18 0.997 0.377 1.37 0.59v0c0.427 0.26 0.8 0.543 1.12 0.85v0c0.28-0.147 0.567-0.287 0.86-0.42v0c0.24-0.113 0.497-0.213 0.77-0.3 0.267-0.087 0.497-0.13 0.69-0.13v0c0.62 0 1.127 0.17 1.52 0.51 0.387 0.34 0.58 0.713 0.58 1.12v0c0 0.113-0.007 0.203-0.02 0.27v0c-0.08 0.307-0.207 0.697-0.38 1.17-0.173 0.473-0.363 1-0.57 1.58-0.213 0.573-0.43 1.173-0.65 1.8-0.22 0.627-0.42 1.243-0.6 1.85-0.18 0.6-0.327 1.163-0.44 1.69-0.113 0.533-0.17 0.987-0.17 1.36v0c0 0.487 0.08 0.89 0.24 1.21 0.167 0.313 0.443 0.47 0.83 0.47v0c0.247 0 0.537-0.077 0.87-0.23 0.333-0.153 0.697-0.36 1.09-0.62 0.387-0.26 0.79-0.557 1.21-0.89 0.413-0.333 0.813-0.673 1.2-1.02v0c0.913-0.813 1.883-1.74 2.91-2.78v0c0.26-0.213 0.513-0.32 0.76-0.32v0c0.327 0 0.597 0.16 0.81 0.48 0.22 0.32 0.33 0.673 0.33 1.06v0c0 0.453-0.153 0.837-0.46 1.15zM86.62-15.5v0c0 0.5-0.057 1.057-0.17 1.67-0.113 0.607-0.3 1.18-0.56 1.72-0.26 0.54-0.593 0.987-1 1.34-0.407 0.36-0.913 0.54-1.52 0.54v0c-0.32 0-0.527-0.05-0.62-0.15-0.087-0.093-0.13-0.263-0.13-0.51v0c0-0.147 0.003-0.363 0.01-0.65 0.007-0.28 0.01-0.55 0.01-0.81v0c0-0.293-0.04-0.543-0.12-0.75-0.08-0.2-0.283-0.3-0.61-0.3v0c-0.373 0-0.793 0.14-1.26 0.42-0.46 0.287-0.923 0.657-1.39 1.11-0.467 0.46-0.917 0.98-1.35 1.56-0.44 0.573-0.837 1.157-1.19 1.75-0.347 0.593-0.623 1.167-0.83 1.72-0.2 0.553-0.3 1.027-0.3 1.42v0c0 0.567 0.197 1.013 0.59 1.34 0.4 0.327 0.943 0.49 1.63 0.49v0c0.733 0 1.513-0.123 2.34-0.37 0.833-0.24 1.66-0.547 2.48-0.92 0.82-0.373 1.613-0.78 2.38-1.22 0.767-0.44 1.463-0.86 2.09-1.26 0.627-0.4 1.15-0.743 1.57-1.03 0.427-0.28 0.703-0.453 0.83-0.52v0c0.26-0.133 0.503-0.2 0.73-0.2v0c0.2 0 0.367 0.047 0.5 0.14 0.14 0.087 0.25 0.193 0.33 0.32 0.087 0.12 0.147 0.25 0.18 0.39 0.027 0.133 0.04 0.25 0.04 0.35v0c0 0.147-0.013 0.32-0.04 0.52-0.033 0.207-0.157 0.44-0.37 0.7v0c-0.08 0.1-0.343 0.35-0.79 0.75-0.453 0.393-1.033 0.86-1.74 1.4-0.707 0.533-1.52 1.107-2.44 1.72-0.92 0.613-1.903 1.17-2.95 1.67-1.053 0.507-2.14 0.927-3.26 1.26-1.127 0.333-2.233 0.5-3.32 0.5v0c-0.833 0-1.57-0.13-2.21-0.39-0.647-0.26-1.19-0.613-1.63-1.06-0.433-0.447-0.767-0.973-1-1.58-0.227-0.6-0.34-1.233-0.34-1.9v0c0-0.733 0.17-1.577 0.51-2.53 0.347-0.953 0.82-1.927 1.42-2.92 0.6-0.987 1.307-1.963 2.12-2.93 0.813-0.96 1.697-1.813 2.65-2.56 0.953-0.747 1.947-1.35 2.98-1.81 1.033-0.453 2.08-0.68 3.14-0.68v0c0.36 0 0.697 0.04 1.01 0.12 0.32 0.087 0.597 0.213 0.83 0.38 0.24 0.173 0.427 0.407 0.56 0.7 0.14 0.293 0.21 0.643 0.21 1.05zM98.68-14.4v0c-0.08-0.02-0.153-0.03-0.22-0.03-0.067 0-0.14 0-0.22 0v0c-0.62 0-1.197 0.123-1.73 0.37-0.54 0.24-1.033 0.56-1.48 0.96-0.447 0.4-0.843 0.853-1.19 1.36-0.353 0.5-0.667 1-0.94 1.5-0.28 0.493-0.513 0.97-0.7 1.43-0.187 0.453-0.33 0.833-0.43 1.14v0c0.573-0.293 1.163-0.627 1.77-1 0.613-0.373 1.187-0.73 1.72-1.07 0.54-0.34 1.01-0.65 1.41-0.93 0.4-0.273 0.68-0.46 0.84-0.56v0c0.733-0.453 1.237-0.88 1.51-1.28 0.28-0.4 0.42-0.747 0.42-1.04v0c0-0.247-0.077-0.443-0.23-0.59-0.16-0.147-0.337-0.233-0.53-0.26zM99.56-17.77v0c1.353 0 2.363 0.323 3.03 0.97 0.667 0.653 1 1.557 1 2.71v0c0 0.687-0.18 1.403-0.54 2.15-0.36 0.747-0.977 1.507-1.85 2.28-0.88 0.773-2.057 1.563-3.53 2.37-1.473 0.807-3.317 1.617-5.53 2.43v0c0.08 0.473 0.333 0.843 0.76 1.11 0.42 0.273 0.98 0.41 1.68 0.41v0c0.747 0 1.547-0.11 2.4-0.33 0.86-0.22 1.707-0.503 2.54-0.85 0.84-0.34 1.66-0.71 2.46-1.11 0.793-0.4 1.513-0.777 2.16-1.13 0.64-0.36 1.177-0.67 1.61-0.93 0.433-0.26 0.723-0.423 0.87-0.49v0c0.147-0.1 0.28-0.157 0.4-0.17 0.12-0.013 0.23-0.02 0.33-0.02v0c0.193 0 0.357 0.043 0.49 0.13 0.127 0.087 0.237 0.193 0.33 0.32 0.087 0.12 0.147 0.25 0.18 0.39 0.033 0.14 0.05 0.257 0.05 0.35v0c0 0.147-0.017 0.323-0.05 0.53-0.033 0.2-0.157 0.43-0.37 0.69v0c-0.08 0.087-0.35 0.307-0.81 0.66-0.467 0.36-1.067 0.783-1.8 1.27-0.733 0.487-1.583 1.003-2.55 1.55-0.967 0.547-1.993 1.047-3.08 1.5-1.08 0.46-2.207 0.84-3.38 1.14-1.173 0.3-2.327 0.45-3.46 0.45v0c-0.98 0-1.847-0.187-2.6-0.56-0.76-0.373-1.403-0.877-1.93-1.51-0.533-0.64-0.937-1.373-1.21-2.2-0.28-0.833-0.42-1.703-0.42-2.61v0c0-0.7 0.14-1.47 0.42-2.31 0.273-0.84 0.67-1.683 1.19-2.53 0.527-0.847 1.167-1.673 1.92-2.48 0.76-0.8 1.61-1.51 2.55-2.13 0.947-0.62 1.987-1.117 3.12-1.49 1.127-0.373 2.333-0.56 3.62-0.56zM122.63-13.87v0c-0.847 0.033-1.647 0.06-2.4 0.08-0.76 0.013-1.497 0.023-2.21 0.03-0.72 0.007-1.43 0.01-2.13 0.01-0.7 0-1.407 0-2.12 0v0c-0.427 0.833-0.903 1.8-1.43 2.9-0.527 1.1-1.08 2.25-1.66 3.45-0.58 1.207-1.157 2.423-1.73 3.65-0.58 1.233-1.13 2.397-1.65 3.49-0.52 1.1-0.993 2.093-1.42 2.98-0.42 0.887-0.76 1.59-1.02 2.11v0c-0.18 0.38-0.4 0.727-0.66 1.04-0.26 0.32-0.547 0.593-0.86 0.82-0.307 0.227-0.623 0.4-0.95 0.52-0.327 0.127-0.627 0.19-0.9 0.19v0c-0.393 0-0.743-0.1-1.05-0.3-0.307-0.193-0.46-0.5-0.46-0.92v0c0-0.213 0.047-0.463 0.14-0.75 0.1-0.287 0.24-0.617 0.42-0.99v0l8.62-18.26h-1.3c-0.893 0-1.503-0.137-1.83-0.41-0.327-0.28-0.49-0.607-0.49-0.98v0c0-0.393 0.203-0.773 0.61-1.14 0.407-0.36 1-0.54 1.78-0.54v0h2.89c1.153-2.333 2.31-4.257 3.47-5.77 1.167-1.513 2.31-2.71 3.43-3.59 1.127-0.873 2.223-1.483 3.29-1.83 1.067-0.34 2.087-0.51 3.06-0.51v0c0.46 0 0.897 0.09 1.31 0.27 0.413 0.18 0.78 0.45 1.1 0.81 0.313 0.353 0.57 0.803 0.77 1.35 0.193 0.547 0.29 1.187 0.29 1.92v0c0 0.7-0.097 1.473-0.29 2.32v0c-0.053 0.227-0.153 0.417-0.3 0.57-0.147 0.153-0.31 0.28-0.49 0.38-0.173 0.093-0.35 0.163-0.53 0.21-0.18 0.04-0.337 0.06-0.47 0.06v0c-0.32 0-0.62-0.08-0.9-0.24-0.273-0.153-0.41-0.393-0.41-0.72v0c0-0.207 0.01-0.4 0.03-0.58 0.027-0.18 0.04-0.36 0.04-0.54v0c0-0.68-0.127-1.167-0.38-1.46-0.253-0.293-0.59-0.44-1.01-0.44v0c-0.507 0-1.097 0.22-1.77 0.66-0.68 0.44-1.363 1.023-2.05 1.75-0.693 0.733-1.357 1.57-1.99 2.51-0.64 0.933-1.163 1.89-1.57 2.87v0h5.69c0.507 0 0.98 0.007 1.42 0.02 0.44 0.013 0.827 0.063 1.16 0.15 0.333 0.08 0.593 0.213 0.78 0.4 0.187 0.187 0.28 0.46 0.28 0.82v0c0 0.18-0.033 0.357-0.1 0.53-0.067 0.18-0.177 0.347-0.33 0.5-0.153 0.16-0.367 0.293-0.64 0.4-0.28 0.1-0.64 0.167-1.08 0.2zM143.9-9.16l0.24 3.33c-0.713 0.813-1.547 1.607-2.5 2.38-0.953 0.773-1.933 1.46-2.94 2.06-1.013 0.6-2.007 1.083-2.98 1.45-0.98 0.367-1.86 0.55-2.64 0.55-0.78 0-1.413-0.22-1.9-0.66-0.493-0.44-0.74-1.187-0.74-2.24v0c0-0.753 0.13-1.627 0.39-2.62v0c-0.42 0.633-0.947 1.277-1.58 1.93-0.633 0.653-1.357 1.247-2.17 1.78-0.82 0.54-1.733 0.977-2.74 1.31-1.007 0.333-2.107 0.5-3.3 0.5v0c-0.533 0-1.05-0.057-1.55-0.17-0.493-0.113-0.927-0.31-1.3-0.59-0.373-0.273-0.673-0.643-0.9-1.11-0.233-0.46-0.35-1.04-0.35-1.74v0c0-0.02 0.033-0.27 0.1-0.75 0.067-0.48 0.273-1.237 0.62-2.27 0.353-1.033 0.897-2.37 1.63-4.01 0.733-1.647 1.767-3.643 3.1-5.99v0c0.34-0.613 0.733-1.057 1.18-1.33 0.447-0.267 0.93-0.4 1.45-0.4v0c0.233 0 0.47 0.03 0.71 0.09 0.247 0.053 0.477 0.14 0.69 0.26 0.207 0.127 0.377 0.283 0.51 0.47 0.127 0.187 0.19 0.403 0.19 0.65v0c0 0.16-0.023 0.313-0.07 0.46v0c-0.08 0.273-0.253 0.637-0.52 1.09-0.273 0.447-0.587 0.957-0.94 1.53-0.36 0.58-0.74 1.203-1.14 1.87-0.4 0.667-0.77 1.36-1.11 2.08-0.34 0.713-0.633 1.44-0.88 2.18-0.247 0.74-0.383 1.46-0.41 2.16v0c0 0.293 0.08 0.563 0.24 0.81 0.16 0.24 0.43 0.36 0.81 0.36v0c1.053 0 2.06-0.29 3.02-0.87 0.96-0.587 1.847-1.317 2.66-2.19 0.813-0.873 1.55-1.81 2.21-2.81 0.66-1 1.21-1.913 1.65-2.74v0c0.313-0.553 0.587-1.15 0.82-1.79 0.233-0.633 0.49-1.217 0.77-1.75 0.273-0.54 0.59-0.99 0.95-1.35 0.36-0.353 0.807-0.53 1.34-0.53v0c0.587 0 1.053 0.187 1.4 0.56 0.34 0.373 0.51 0.82 0.51 1.34v0c0 0.293-0.11 0.697-0.33 1.21-0.22 0.513-0.497 1.1-0.83 1.76-0.333 0.66-0.697 1.363-1.09 2.11-0.387 0.747-0.747 1.507-1.08 2.28-0.34 0.773-0.617 1.53-0.83 2.27-0.22 0.74-0.33 1.43-0.33 2.07v0c0 0.58 0.357 0.87 1.07 0.87v0c0.507 0 1.133-0.147 1.88-0.44 0.747-0.287 1.533-0.697 2.36-1.23 0.82-0.527 1.64-1.15 2.46-1.87 0.82-0.713 1.55-1.487 2.19-2.32zM144.9-7.06v0c-0.18 0.38-0.357 0.817-0.53 1.31-0.167 0.5-0.25 0.943-0.25 1.33v0c0 0.247 0.047 0.443 0.14 0.59 0.1 0.147 0.287 0.22 0.56 0.22v0c0.347 0 0.777-0.103 1.29-0.31 0.513-0.2 1.067-0.467 1.66-0.8 0.593-0.333 1.21-0.717 1.85-1.15 0.647-0.433 1.287-0.88 1.92-1.34 0.633-0.467 1.24-0.933 1.82-1.4 0.573-0.46 1.09-0.887 1.55-1.28v0c0.127-0.113 0.28-0.193 0.46-0.24 0.18-0.053 0.333-0.08 0.46-0.08v0c0.327 0 0.597 0.117 0.81 0.35 0.213 0.227 0.32 0.527 0.32 0.9v0c0 0.34-0.113 0.723-0.34 1.15-0.233 0.42-0.633 0.833-1.2 1.24v0c-1.04 0.96-2.09 1.873-3.15 2.74-1.06 0.86-2.113 1.62-3.16 2.28-1.053 0.66-2.097 1.183-3.13 1.57-1.033 0.393-2.037 0.59-3.01 0.59v0c-0.667 0-1.223-0.09-1.67-0.27-0.447-0.18-0.807-0.423-1.08-0.73-0.267-0.307-0.457-0.673-0.57-1.1-0.113-0.42-0.17-0.867-0.17-1.34v0c0-0.8 0.117-1.62 0.35-2.46 0.24-0.833 0.52-1.6 0.84-2.3v0c0.573-1.273 1.153-2.537 1.74-3.79 0.587-1.253 1.123-2.4 1.61-3.44v0l7.4-15.75c0.293-0.633 0.687-1.08 1.18-1.34 0.493-0.26 0.993-0.39 1.5-0.39 0.507 0 0.967 0.14 1.38 0.42 0.413 0.273 0.62 0.72 0.62 1.34v0c0 0.293-0.067 0.603-0.2 0.93-0.14 0.32-0.317 0.67-0.53 1.05v0c-0.407 0.76-0.89 1.693-1.45 2.8-0.56 1.107-1.163 2.313-1.81 3.62-0.64 1.3-1.3 2.653-1.98 4.06-0.673 1.407-1.33 2.78-1.97 4.12-0.647 1.333-1.25 2.597-1.81 3.79-0.56 1.2-1.043 2.237-1.45 3.11z" fill="#fc76ae" fill-rule="nonzero" stroke="none" stroke-width="1" stroke-linecap="butt" stroke-linejoin="miter" stroke-miterlimit="10" stroke-dasharray="" stroke-dashoffset="0" font-family="none" font-weight="none" font-size="none" text-anchor="none" style="mix-blend-mode: normal" data-fill-palette-color="quaternary" opacity="1"></path><path transform="translate(112.95,52.71)" d="M16.33-15.5v0c0 0.5-0.057 1.057-0.17 1.67-0.113 0.607-0.3 1.18-0.56 1.72-0.26 0.54-0.593 0.987-1 1.34-0.407 0.36-0.91 0.54-1.51 0.54v0c-0.327 0-0.537-0.05-0.63-0.15-0.087-0.093-0.13-0.263-0.13-0.51v0c0-0.147 0.003-0.363 0.01-0.65 0.007-0.28 0.01-0.55 0.01-0.81v0c0-0.293-0.04-0.543-0.12-0.75-0.08-0.2-0.283-0.3-0.61-0.3v0c-0.373 0-0.793 0.14-1.26 0.42-0.46 0.287-0.923 0.657-1.39 1.11-0.46 0.46-0.91 0.98-1.35 1.56-0.44 0.573-0.837 1.157-1.19 1.75-0.347 0.593-0.623 1.167-0.83 1.72-0.2 0.553-0.3 1.027-0.3 1.42v0c0 0.567 0.2 1.013 0.6 1.34 0.393 0.327 0.933 0.49 1.62 0.49v0c0.733 0 1.513-0.123 2.34-0.37 0.833-0.24 1.66-0.547 2.48-0.92 0.82-0.373 1.613-0.78 2.38-1.22 0.767-0.44 1.463-0.86 2.09-1.26 0.627-0.4 1.15-0.743 1.57-1.03 0.427-0.28 0.703-0.453 0.83-0.52v0c0.26-0.133 0.507-0.2 0.74-0.2v0c0.193 0 0.36 0.047 0.5 0.14 0.133 0.087 0.243 0.193 0.33 0.32 0.08 0.12 0.137 0.25 0.17 0.39 0.033 0.133 0.05 0.25 0.05 0.35v0c0 0.147-0.017 0.32-0.05 0.52-0.033 0.207-0.157 0.44-0.37 0.7v0c-0.08 0.1-0.343 0.35-0.79 0.75-0.447 0.393-1.027 0.86-1.74 1.4-0.707 0.533-1.52 1.107-2.44 1.72-0.92 0.613-1.903 1.17-2.95 1.67-1.053 0.507-2.14 0.927-3.26 1.26-1.127 0.333-2.233 0.5-3.32 0.5v0c-0.833 0-1.57-0.13-2.21-0.39-0.64-0.26-1.18-0.613-1.62-1.06-0.44-0.447-0.773-0.973-1-1.58-0.233-0.6-0.35-1.233-0.35-1.9v0c0-0.733 0.173-1.577 0.52-2.53 0.34-0.953 0.81-1.927 1.41-2.92 0.607-0.987 1.317-1.963 2.13-2.93 0.813-0.96 1.693-1.813 2.64-2.56 0.953-0.747 1.947-1.35 2.98-1.81 1.033-0.453 2.08-0.68 3.14-0.68v0c0.36 0 0.697 0.04 1.01 0.12 0.32 0.087 0.597 0.213 0.83 0.38 0.24 0.173 0.43 0.407 0.57 0.7 0.133 0.293 0.2 0.643 0.2 1.05zM27.66-13.45v0c-0.767 0-1.503 0.19-2.21 0.57-0.707 0.387-1.333 0.893-1.88 1.52-0.547 0.627-0.98 1.333-1.3 2.12-0.327 0.787-0.49 1.597-0.49 2.43v0c0 0.307 0.023 0.643 0.07 1.01 0.047 0.367 0.15 0.71 0.31 1.03 0.153 0.313 0.377 0.577 0.67 0.79 0.293 0.213 0.683 0.32 1.17 0.32v0c0.747 0 1.473-0.2 2.18-0.6 0.713-0.4 1.347-0.92 1.9-1.56 0.553-0.647 0.99-1.377 1.31-2.19 0.327-0.813 0.49-1.633 0.49-2.46v0c0-0.327-0.02-0.667-0.06-1.02-0.04-0.347-0.137-0.667-0.29-0.96-0.153-0.293-0.377-0.533-0.67-0.72-0.293-0.187-0.693-0.28-1.2-0.28zM28.93-17.75v0c0.62 0 1.283 0.083 1.99 0.25 0.707 0.16 1.363 0.437 1.97 0.83 0.6 0.387 1.1 0.903 1.5 1.55 0.4 0.64 0.6 1.433 0.6 2.38v0c0 0.487-0.067 1.043-0.2 1.67-0.133 0.627-0.33 1.28-0.59 1.96v0c0.167 0.2 0.357 0.34 0.57 0.42 0.207 0.08 0.433 0.12 0.68 0.12v0c0.34 0 0.717-0.097 1.13-0.29 0.42-0.2 0.85-0.453 1.29-0.76 0.44-0.307 0.877-0.657 1.31-1.05 0.44-0.387 0.857-0.777 1.25-1.17 0.393-0.393 0.747-0.763 1.06-1.11 0.32-0.353 0.587-0.65 0.8-0.89v0c0.113-0.113 0.25-0.17 0.41-0.17v0c0.227 0 0.43 0.117 0.61 0.35 0.18 0.233 0.27 0.563 0.27 0.99 0 0.42-0.127 0.907-0.38 1.46-0.253 0.553-0.72 1.133-1.4 1.74v0c-0.393 0.42-0.843 0.907-1.35 1.46-0.5 0.553-1.037 1.073-1.61 1.56-0.567 0.493-1.16 0.91-1.78 1.25-0.62 0.34-1.237 0.51-1.85 0.51v0c-0.427 0-0.84-0.063-1.24-0.19-0.4-0.133-0.803-0.347-1.21-0.64v0c-0.587 0.913-1.253 1.743-2 2.49-0.747 0.753-1.58 1.397-2.5 1.93-0.92 0.54-1.913 0.96-2.98 1.26-1.067 0.3-2.2 0.45-3.4 0.45v0c-0.46 0-0.99-0.09-1.59-0.27-0.607-0.18-1.18-0.477-1.72-0.89-0.547-0.413-1.007-0.953-1.38-1.62-0.373-0.667-0.56-1.48-0.56-2.44v0c0-0.653 0.103-1.437 0.31-2.35 0.213-0.913 0.537-1.853 0.97-2.82 0.427-0.967 0.97-1.927 1.63-2.88 0.66-0.953 1.447-1.807 2.36-2.56 0.913-0.76 1.953-1.37 3.12-1.83 1.173-0.467 2.477-0.7 3.91-0.7zM55.08-13.11v0c-0.313 0.687-0.657 1.51-1.03 2.47-0.373 0.96-0.78 1.96-1.22 3-0.44 1.04-0.907 2.073-1.4 3.1-0.5 1.027-1.02 1.943-1.56 2.75-0.547 0.8-1.11 1.453-1.69 1.96-0.58 0.507-1.17 0.76-1.77 0.76v0c-0.507 0-0.92-0.077-1.24-0.23-0.327-0.16-0.58-0.357-0.76-0.59-0.18-0.233-0.307-0.493-0.38-0.78-0.073-0.287-0.11-0.56-0.11-0.82v0c0-0.393 0.06-0.793 0.18-1.2 0.127-0.407 0.28-0.78 0.46-1.12v0l9.35-17.21c0.407-0.713 0.793-1.277 1.16-1.69 0.367-0.407 0.707-0.707 1.02-0.9 0.32-0.193 0.6-0.31 0.84-0.35 0.247-0.04 0.45-0.06 0.61-0.06v0c0.293 0 0.563 0.1 0.81 0.3 0.247 0.207 0.37 0.577 0.37 1.11v0c0 0.52-0.14 1.237-0.42 2.15-0.273 0.913-0.787 2.087-1.54 3.52v0c1.273-0.1 2.527-0.317 3.76-0.65 1.24-0.333 2.35-0.793 3.33-1.38 0.987-0.587 1.783-1.3 2.39-2.14 0.6-0.833 0.9-1.803 0.9-2.91v0c0-0.98-0.16-1.913-0.48-2.8-0.313-0.887-0.777-1.667-1.39-2.34-0.607-0.68-1.36-1.217-2.26-1.61-0.893-0.4-1.927-0.6-3.1-0.6v0c-1.593 0-2.963 0.15-4.11 0.45-1.147 0.3-2.133 0.693-2.96 1.18-0.82 0.493-1.507 1.057-2.06 1.69-0.553 0.633-1.03 1.277-1.43 1.93-0.4 0.647-0.753 1.29-1.06 1.93-0.307 0.633-0.627 1.193-0.96 1.68-0.333 0.487-0.713 0.88-1.14 1.18-0.42 0.307-0.94 0.46-1.56 0.46v0c-0.8 0-1.39-0.203-1.77-0.61-0.38-0.407-0.57-0.987-0.57-1.74 0-0.747 0.203-1.563 0.61-2.45 0.407-0.887 0.983-1.777 1.73-2.67 0.747-0.9 1.653-1.76 2.72-2.58 1.067-0.82 2.267-1.55 3.6-2.19 1.333-0.633 2.787-1.14 4.36-1.52 1.573-0.387 3.23-0.58 4.97-0.58v0c1.627 0 3.193 0.233 4.7 0.7 1.507 0.467 2.837 1.163 3.99 2.09 1.153 0.927 2.077 2.087 2.77 3.48 0.693 1.387 1.04 3.017 1.04 4.89v0c0 1.713-0.41 3.257-1.23 4.63-0.827 1.373-1.933 2.537-3.32 3.49-1.393 0.953-3.003 1.687-4.83 2.2-1.82 0.513-3.74 0.77-5.76 0.77v0c-0.42 0-0.847-0.01-1.28-0.03-0.433-0.013-0.86-0.053-1.28-0.12zM77.73-13.33v0c-0.76 0-1.5 0.197-2.22 0.59-0.713 0.387-1.347 0.897-1.9 1.53-0.553 0.64-0.993 1.353-1.32 2.14-0.327 0.787-0.49 1.58-0.49 2.38v0c0 0.327 0.02 0.663 0.06 1.01 0.04 0.353 0.133 0.677 0.28 0.97 0.147 0.293 0.357 0.537 0.63 0.73 0.267 0.193 0.627 0.29 1.08 0.29v0c0.36 0 0.78-0.157 1.26-0.47 0.48-0.32 0.977-0.727 1.49-1.22 0.513-0.5 1.013-1.047 1.5-1.64 0.487-0.593 0.927-1.173 1.32-1.74 0.387-0.573 0.703-1.087 0.95-1.54 0.247-0.46 0.37-0.793 0.37-1v0c0-0.313-0.107-0.597-0.32-0.85-0.213-0.247-0.473-0.46-0.78-0.64-0.313-0.18-0.643-0.317-0.99-0.41-0.347-0.087-0.653-0.13-0.92-0.13zM94.65-7.03v0c-0.293 0.273-0.683 0.657-1.17 1.15-0.487 0.487-1.043 1.013-1.67 1.58-0.627 0.573-1.293 1.147-2 1.72-0.707 0.58-1.433 1.107-2.18 1.58-0.74 0.473-1.467 0.86-2.18 1.16-0.713 0.3-1.39 0.45-2.03 0.45v0c-0.567 0-1.053-0.123-1.46-0.37-0.407-0.24-0.747-0.557-1.02-0.95-0.267-0.387-0.463-0.83-0.59-1.33-0.133-0.493-0.2-1-0.2-1.52v0c0-0.347 0.023-0.687 0.07-1.02 0.053-0.333 0.137-0.647 0.25-0.94v0c-0.507 0.687-1.08 1.39-1.72 2.11-0.647 0.727-1.34 1.387-2.08 1.98-0.74 0.593-1.513 1.083-2.32 1.47-0.807 0.38-1.623 0.57-2.45 0.57v0c-0.427 0-0.92-0.087-1.48-0.26-0.56-0.167-1.093-0.447-1.6-0.84-0.5-0.387-0.923-0.89-1.27-1.51-0.34-0.62-0.51-1.377-0.51-2.27v0c0-0.667 0.103-1.467 0.31-2.4 0.2-0.927 0.507-1.89 0.92-2.89 0.42-1 0.95-1.987 1.59-2.96 0.647-0.98 1.407-1.857 2.28-2.63 0.88-0.773 1.883-1.4 3.01-1.88 1.12-0.48 2.373-0.72 3.76-0.72v0c0.713 0 1.34 0.09 1.88 0.27 0.533 0.18 0.987 0.377 1.36 0.59v0c0.427 0.26 0.803 0.543 1.13 0.85v0c0.273-0.147 0.557-0.287 0.85-0.42v0c0.247-0.113 0.503-0.213 0.77-0.3 0.267-0.087 0.5-0.13 0.7-0.13v0c0.613 0 1.117 0.17 1.51 0.51 0.393 0.34 0.59 0.713 0.59 1.12v0c0 0.113-0.01 0.203-0.03 0.27v0c-0.08 0.307-0.207 0.697-0.38 1.17-0.167 0.473-0.357 1-0.57 1.58-0.213 0.573-0.43 1.173-0.65 1.8-0.22 0.627-0.42 1.243-0.6 1.85-0.173 0.6-0.32 1.163-0.44 1.69-0.113 0.533-0.17 0.987-0.17 1.36v0c0 0.487 0.083 0.89 0.25 1.21 0.16 0.313 0.437 0.47 0.83 0.47v0c0.24 0 0.527-0.077 0.86-0.23 0.333-0.153 0.697-0.36 1.09-0.62 0.393-0.26 0.797-0.557 1.21-0.89 0.413-0.333 0.817-0.673 1.21-1.02v0c0.907-0.813 1.873-1.74 2.9-2.78v0c0.26-0.213 0.513-0.32 0.76-0.32v0c0.327 0 0.6 0.16 0.82 0.48 0.22 0.32 0.33 0.673 0.33 1.06v0c0 0.453-0.157 0.837-0.47 1.15zM100.59-14.21l0.04-0.02c0.64-0.393 1.297-0.753 1.97-1.08 0.673-0.327 1.33-0.607 1.97-0.84 0.633-0.233 1.237-0.42 1.81-0.56 0.58-0.14 1.097-0.21 1.55-0.21v0c0.733 0 1.3 0.177 1.7 0.53 0.4 0.347 0.6 0.937 0.6 1.77v0c0 0.173-0.007 0.363-0.02 0.57-0.02 0.2-0.053 0.417-0.1 0.65v0c-0.08 0.42-0.323 0.917-0.73 1.49-0.413 0.567-0.89 1.16-1.43 1.78-0.547 0.62-1.133 1.243-1.76 1.87-0.627 0.627-1.203 1.203-1.73 1.73-0.533 0.527-0.973 0.987-1.32 1.38-0.353 0.387-0.53 0.653-0.53 0.8v0c0 0.133 0.01 0.223 0.03 0.27 0.013 0.053 0.087 0.08 0.22 0.08v0c0.873-0.38 1.853-0.833 2.94-1.36 1.08-0.527 2.157-1.067 3.23-1.62 1.073-0.553 2.09-1.097 3.05-1.63 0.967-0.527 1.783-0.987 2.45-1.38v0c0.147-0.08 0.297-0.147 0.45-0.2 0.153-0.06 0.297-0.09 0.43-0.09v0c0.287 0 0.53 0.097 0.73 0.29 0.193 0.2 0.29 0.463 0.29 0.79v0c0 0.373-0.16 0.8-0.48 1.28-0.313 0.48-0.843 0.98-1.59 1.5v0c-0.573 0.36-1.213 0.763-1.92 1.21-0.707 0.447-1.447 0.91-2.22 1.39-0.773 0.48-1.557 0.947-2.35 1.4-0.787 0.46-1.547 0.867-2.28 1.22-0.733 0.36-1.42 0.65-2.06 0.87-0.647 0.22-1.203 0.33-1.67 0.33v0c-1.127 0-1.97-0.27-2.53-0.81-0.56-0.533-0.84-1.223-0.84-2.07v0c0-0.133 0.007-0.23 0.02-0.29v0c0.113-0.72 0.327-1.413 0.64-2.08 0.307-0.667 0.657-1.3 1.05-1.9 0.387-0.607 0.793-1.18 1.22-1.72 0.42-0.547 0.807-1.06 1.16-1.54 0.347-0.48 0.633-0.923 0.86-1.33 0.227-0.407 0.34-0.783 0.34-1.13v0c0-0.08-0.013-0.16-0.04-0.24-0.033-0.08-0.107-0.12-0.22-0.12v0c-0.2 0-0.523 0.073-0.97 0.22-0.447 0.147-0.923 0.34-1.43 0.58-0.5 0.247-0.98 0.53-1.44 0.85-0.453 0.313-0.777 0.65-0.97 1.01v0c-0.26 0.453-0.563 1.03-0.91 1.73-0.34 0.7-0.693 1.433-1.06 2.2-0.367 0.767-0.72 1.523-1.06 2.27-0.34 0.747-0.633 1.39-0.88 1.93v0c-0.193 0.473-0.45 0.897-0.77 1.27-0.32 0.373-0.667 0.69-1.04 0.95-0.373 0.26-0.753 0.463-1.14 0.61-0.393 0.147-0.753 0.22-1.08 0.22v0c-0.373 0-0.67-0.097-0.89-0.29-0.22-0.2-0.33-0.517-0.33-0.95v0c0-0.18 0.03-0.407 0.09-0.68 0.053-0.267 0.17-0.563 0.35-0.89v0c0.293-0.553 0.59-1.153 0.89-1.8 0.3-0.653 0.647-1.4 1.04-2.24 0.387-0.84 0.837-1.8 1.35-2.88 0.513-1.08 1.12-2.33 1.82-3.75v0c-0.227-0.193-0.417-0.433-0.57-0.72-0.153-0.28-0.23-0.633-0.23-1.06v0c0-0.387 0.08-0.723 0.24-1.01 0.167-0.287 0.387-0.52 0.66-0.7 0.28-0.18 0.6-0.313 0.96-0.4 0.367-0.087 0.753-0.13 1.16-0.13v0c0.427 0 0.85 0.037 1.27 0.11 0.427 0.073 0.807 0.18 1.14 0.32 0.333 0.147 0.607 0.327 0.82 0.54 0.207 0.213 0.31 0.457 0.31 0.73v0c0 0.053-0.013 0.12-0.04 0.2-0.033 0.08-0.07 0.17-0.11 0.27-0.047 0.093-0.083 0.183-0.11 0.27-0.033 0.08-0.05 0.143-0.05 0.19v0c0 0.033 0.007 0.05 0.02 0.05v0zM122.78-14.4v0c-0.08-0.02-0.153-0.03-0.22-0.03-0.067 0-0.14 0-0.22 0v0c-0.62 0-1.197 0.123-1.73 0.37-0.54 0.24-1.033 0.56-1.48 0.96-0.447 0.4-0.847 0.853-1.2 1.36-0.347 0.5-0.66 1-0.94 1.5-0.273 0.493-0.503 0.97-0.69 1.43-0.187 0.453-0.33 0.833-0.43 1.14v0c0.567-0.293 1.157-0.627 1.77-1 0.607-0.373 1.18-0.73 1.72-1.07 0.54-0.34 1.007-0.65 1.4-0.93 0.4-0.273 0.683-0.46 0.85-0.56v0c0.733-0.453 1.237-0.88 1.51-1.28 0.28-0.4 0.42-0.747 0.42-1.04v0c0-0.247-0.08-0.443-0.24-0.59-0.153-0.147-0.327-0.233-0.52-0.26zM123.66-17.77v0c1.347 0 2.353 0.323 3.02 0.97 0.673 0.653 1.01 1.557 1.01 2.71v0c0 0.687-0.18 1.403-0.54 2.15-0.36 0.747-0.98 1.507-1.86 2.28-0.88 0.773-2.053 1.563-3.52 2.37-1.473 0.807-3.317 1.617-5.53 2.43v0c0.08 0.473 0.33 0.843 0.75 1.11 0.427 0.273 0.99 0.41 1.69 0.41v0c0.747 0 1.547-0.11 2.4-0.33 0.853-0.22 1.7-0.503 2.54-0.85 0.84-0.34 1.657-0.71 2.45-1.11 0.8-0.4 1.52-0.777 2.16-1.13 0.647-0.36 1.187-0.67 1.62-0.93 0.427-0.26 0.713-0.423 0.86-0.49v0c0.147-0.1 0.283-0.157 0.41-0.17 0.12-0.013 0.23-0.02 0.33-0.02v0c0.193 0 0.353 0.043 0.48 0.13 0.133 0.087 0.243 0.193 0.33 0.32 0.093 0.12 0.157 0.25 0.19 0.39 0.033 0.14 0.05 0.257 0.05 0.35v0c0 0.147-0.017 0.323-0.05 0.53-0.033 0.2-0.157 0.43-0.37 0.69v0c-0.08 0.087-0.353 0.307-0.82 0.66-0.46 0.36-1.057 0.783-1.79 1.27-0.733 0.487-1.583 1.003-2.55 1.55-0.973 0.547-2 1.047-3.08 1.5-1.08 0.46-2.207 0.84-3.38 1.14-1.173 0.3-2.33 0.45-3.47 0.45v0c-0.973 0-1.84-0.187-2.6-0.56-0.753-0.373-1.397-0.877-1.93-1.51-0.527-0.64-0.93-1.373-1.21-2.2-0.273-0.833-0.41-1.703-0.41-2.61v0c0-0.7 0.137-1.47 0.41-2.31 0.28-0.84 0.68-1.683 1.2-2.53 0.52-0.847 1.16-1.673 1.92-2.48 0.753-0.8 1.603-1.51 2.55-2.13 0.94-0.62 1.977-1.117 3.11-1.49 1.133-0.373 2.343-0.56 3.63-0.56zM133.79-14.82v0c0.327-0.7 0.733-1.22 1.22-1.56 0.487-0.34 0.967-0.51 1.44-0.51v0c0.393 0 0.743 0.14 1.05 0.42 0.307 0.287 0.46 0.707 0.46 1.26v0c0 0.213-0.023 0.44-0.07 0.68-0.047 0.247-0.137 0.507-0.27 0.78v0c0.36-0.453 0.873-0.92 1.54-1.4 0.667-0.48 1.403-0.91 2.21-1.29 0.807-0.387 1.637-0.7 2.49-0.94 0.853-0.247 1.663-0.37 2.43-0.37v0c0.86 0 1.58 0.207 2.16 0.62 0.58 0.42 0.87 1.127 0.87 2.12v0c0 0.58-0.09 1.19-0.27 1.83-0.18 0.633-0.413 1.267-0.7 1.9-0.287 0.633-0.603 1.257-0.95 1.87-0.347 0.607-0.693 1.18-1.04 1.72-0.34 0.54-0.653 1.033-0.94 1.48-0.28 0.447-0.503 0.817-0.67 1.11v0c-0.213 0.26-0.32 0.56-0.32 0.9v0c0 0.133 0.043 0.247 0.13 0.34 0.08 0.1 0.21 0.15 0.39 0.15v0c0.113 0 0.243-0.013 0.39-0.04 0.147-0.02 0.323-0.103 0.53-0.25v0c0.88-0.327 1.78-0.733 2.7-1.22 0.92-0.493 1.803-1.01 2.65-1.55 0.847-0.547 1.623-1.093 2.33-1.64 0.707-0.547 1.297-1.04 1.77-1.48v0c0.133-0.113 0.263-0.193 0.39-0.24 0.133-0.053 0.257-0.08 0.37-0.08v0c0.273 0 0.49 0.107 0.65 0.32 0.153 0.213 0.23 0.483 0.23 0.81v0c0 0.5-0.16 1.06-0.48 1.68-0.313 0.62-0.813 1.2-1.5 1.74v0c-0.927 0.667-1.777 1.277-2.55 1.83-0.773 0.553-1.563 1.07-2.37 1.55-0.807 0.48-1.67 0.927-2.59 1.34-0.92 0.413-1.997 0.8-3.23 1.16v0c-0.427 0.133-0.813 0.23-1.16 0.29-0.353 0.067-0.677 0.1-0.97 0.1v0c-0.86 0-1.49-0.24-1.89-0.72-0.4-0.48-0.6-1.15-0.6-2.01v0c0-0.113 0.007-0.223 0.02-0.33 0.007-0.107 0.017-0.227 0.03-0.36v0c0.033-0.5 0.17-1.053 0.41-1.66 0.233-0.6 0.517-1.217 0.85-1.85 0.333-0.64 0.687-1.273 1.06-1.9 0.373-0.627 0.72-1.22 1.04-1.78 0.32-0.56 0.583-1.06 0.79-1.5 0.213-0.44 0.32-0.797 0.32-1.07v0c0-0.247-0.07-0.457-0.21-0.63-0.133-0.167-0.34-0.25-0.62-0.25v0c-1.04 0-2.03 0.31-2.97 0.93-0.933 0.613-1.807 1.373-2.62 2.28-0.813 0.9-1.563 1.857-2.25 2.87-0.68 1.007-1.28 1.91-1.8 2.71v0c-0.327 0.533-0.623 1.107-0.89 1.72-0.273 0.607-0.557 1.177-0.85 1.71-0.293 0.527-0.623 0.967-0.99 1.32-0.36 0.347-0.817 0.52-1.37 0.52v0c-0.573 0-1.023-0.18-1.35-0.54-0.327-0.353-0.49-0.793-0.49-1.32v0c0-0.273 0.117-0.72 0.35-1.34 0.227-0.62 0.52-1.337 0.88-2.15 0.353-0.813 0.753-1.687 1.2-2.62 0.447-0.933 0.897-1.86 1.35-2.78 0.447-0.92 0.873-1.787 1.28-2.6 0.407-0.813 0.74-1.507 1-2.08zM170.53-13.65l-10.15 0.08c-0.607 1.167-1.177 2.31-1.71 3.43-0.54 1.113-1.047 2.14-1.52 3.08v0c-0.193 0.393-0.383 0.847-0.57 1.36-0.187 0.513-0.28 0.963-0.28 1.35v0c0 0.233 0.053 0.413 0.16 0.54 0.107 0.133 0.28 0.2 0.52 0.2v0c0.347 0 0.78-0.103 1.3-0.31 0.52-0.2 1.08-0.467 1.68-0.8 0.6-0.333 1.237-0.717 1.91-1.15 0.667-0.433 1.32-0.88 1.96-1.34 0.64-0.467 1.253-0.933 1.84-1.4 0.587-0.46 1.11-0.887 1.57-1.28v0c0.26-0.18 0.503-0.27 0.73-0.27v0c0.273 0 0.5 0.123 0.68 0.37 0.18 0.247 0.27 0.557 0.27 0.93 0 0.373-0.09 0.757-0.27 1.15-0.18 0.387-0.503 0.767-0.97 1.14v0c-1.06 0.96-2.13 1.873-3.21 2.74-1.087 0.86-2.163 1.62-3.23 2.28-1.067 0.66-2.12 1.183-3.16 1.57-1.04 0.393-2.05 0.59-3.03 0.59v0c-0.647 0-1.19-0.087-1.63-0.26-0.44-0.167-0.793-0.4-1.06-0.7-0.273-0.307-0.467-0.657-0.58-1.05-0.113-0.4-0.17-0.83-0.17-1.29v0c0-0.813 0.14-1.657 0.42-2.53 0.273-0.88 0.58-1.67 0.92-2.37v0c0.493-1.013 0.98-2.017 1.46-3.01 0.48-0.987 0.947-1.937 1.4-2.85v0h-1.05c-0.913 0-1.54-0.147-1.88-0.44-0.34-0.293-0.51-0.627-0.51-1v0c0-0.167 0.053-0.367 0.16-0.6 0.107-0.233 0.26-0.453 0.46-0.66 0.207-0.207 0.457-0.38 0.75-0.52 0.287-0.147 0.62-0.22 1-0.22v0h2.63l5.15-10.23c0.327-0.62 0.73-1.063 1.21-1.33 0.48-0.273 0.98-0.41 1.5-0.41v0c0.493 0 0.943 0.13 1.35 0.39 0.407 0.26 0.61 0.693 0.61 1.3v0c0 0.307-0.07 0.62-0.21 0.94-0.14 0.313-0.323 0.683-0.55 1.11v0c-0.147 0.273-0.327 0.603-0.54 0.99-0.207 0.38-0.43 0.787-0.67 1.22-0.233 0.427-0.477 0.877-0.73 1.35-0.253 0.473-0.5 0.93-0.74 1.37v0c-0.553 1.04-1.14 2.14-1.76 3.3v0h7.96c0.387 0 0.743 0.02 1.07 0.06 0.327 0.04 0.607 0.12 0.84 0.24 0.24 0.12 0.423 0.287 0.55 0.5 0.133 0.213 0.2 0.5 0.2 0.86v0c0 0.173-0.03 0.35-0.09 0.53-0.053 0.18-0.16 0.343-0.32 0.49-0.153 0.147-0.363 0.27-0.63 0.37-0.267 0.093-0.613 0.157-1.04 0.19zM171.88-21.12v0c0-0.373 0.067-0.76 0.2-1.16 0.14-0.4 0.35-0.76 0.63-1.08 0.273-0.327 0.617-0.597 1.03-0.81 0.42-0.213 0.913-0.32 1.48-0.32v0c0.947 0 1.607 0.183 1.98 0.55 0.373 0.367 0.56 0.827 0.56 1.38v0c0 0.313-0.06 0.657-0.18 1.03-0.127 0.373-0.31 0.717-0.55 1.03-0.247 0.32-0.567 0.587-0.96 0.8-0.387 0.213-0.85 0.32-1.39 0.32v0c-1.007 0-1.713-0.16-2.12-0.48-0.407-0.32-0.633-0.74-0.68-1.26zM169.19-15.63v0c0.273-0.453 0.59-0.777 0.95-0.97 0.36-0.193 0.727-0.29 1.1-0.29v0c0.62 0 1.153 0.197 1.6 0.59 0.447 0.4 0.67 0.91 0.67 1.53v0c-0.013 0.147-0.033 0.293-0.06 0.44-0.027 0.147-0.08 0.293-0.16 0.44v0c-0.227 0.42-0.413 0.777-0.56 1.07-0.147 0.293-0.28 0.567-0.4 0.82-0.127 0.253-0.247 0.503-0.36 0.75-0.113 0.24-0.25 0.53-0.41 0.87v0c-0.2 0.407-0.42 0.85-0.66 1.33-0.247 0.48-0.48 0.973-0.7 1.48-0.22 0.507-0.407 1.003-0.56 1.49-0.153 0.487-0.23 0.933-0.23 1.34v0c0 0.44 0.11 0.73 0.33 0.87 0.22 0.14 0.533 0.21 0.94 0.21v0c0.453 0 0.93-0.1 1.43-0.3 0.493-0.193 0.993-0.443 1.5-0.75 0.507-0.313 1.003-0.667 1.49-1.06 0.487-0.4 0.947-0.803 1.38-1.21 0.427-0.407 0.823-0.797 1.19-1.17 0.367-0.38 0.673-0.717 0.92-1.01v0c0.327-0.307 0.653-0.46 0.98-0.46v0c0.287 0 0.527 0.13 0.72 0.39 0.187 0.26 0.28 0.593 0.28 1v0c0 0.373-0.093 0.773-0.28 1.2-0.193 0.42-0.5 0.82-0.92 1.2v0c-0.827 0.84-1.673 1.647-2.54 2.42-0.86 0.773-1.743 1.46-2.65 2.06-0.9 0.593-1.807 1.067-2.72 1.42-0.913 0.36-1.833 0.54-2.76 0.54v0c-1.32 0-2.357-0.337-3.11-1.01-0.76-0.68-1.14-1.733-1.14-3.16v0c0-0.753 0.107-1.487 0.32-2.2 0.213-0.72 0.467-1.417 0.76-2.09 0.293-0.673 0.603-1.323 0.93-1.95 0.32-0.627 0.597-1.227 0.83-1.8v0c0.08-0.207 0.22-0.53 0.42-0.97 0.207-0.44 0.423-0.89 0.65-1.35v0c0.26-0.533 0.537-1.103 0.83-1.71zM181.62-14.82v0c0.32-0.7 0.727-1.22 1.22-1.56 0.487-0.34 0.967-0.51 1.44-0.51v0c0.387 0 0.737 0.14 1.05 0.42 0.307 0.287 0.46 0.707 0.46 1.26v0c0 0.213-0.023 0.44-0.07 0.68-0.053 0.247-0.143 0.507-0.27 0.78v0c0.36-0.453 0.873-0.92 1.54-1.4 0.667-0.48 1.403-0.91 2.21-1.29 0.807-0.387 1.637-0.7 2.49-0.94 0.853-0.247 1.663-0.37 2.43-0.37v0c0.86 0 1.58 0.207 2.16 0.62 0.573 0.42 0.86 1.127 0.86 2.12v0c0 0.58-0.087 1.19-0.26 1.83-0.18 0.633-0.413 1.267-0.7 1.9-0.287 0.633-0.603 1.257-0.95 1.87-0.353 0.607-0.7 1.18-1.04 1.72-0.34 0.54-0.653 1.033-0.94 1.48-0.287 0.447-0.51 0.817-0.67 1.11v0c-0.213 0.26-0.32 0.56-0.32 0.9v0c0 0.133 0.04 0.247 0.12 0.34 0.08 0.1 0.21 0.15 0.39 0.15v0c0.113 0 0.243-0.013 0.39-0.04 0.147-0.02 0.327-0.103 0.54-0.25v0c0.88-0.327 1.78-0.733 2.7-1.22 0.92-0.493 1.803-1.01 2.65-1.55 0.847-0.547 1.623-1.093 2.33-1.64 0.707-0.547 1.297-1.04 1.77-1.48v0c0.127-0.113 0.257-0.193 0.39-0.24 0.133-0.053 0.257-0.08 0.37-0.08v0c0.273 0 0.487 0.107 0.64 0.32 0.16 0.213 0.24 0.483 0.24 0.81v0c0 0.5-0.16 1.06-0.48 1.68-0.32 0.62-0.82 1.2-1.5 1.74v0c-0.927 0.667-1.777 1.277-2.55 1.83-0.773 0.553-1.563 1.07-2.37 1.55-0.807 0.48-1.67 0.927-2.59 1.34-0.92 0.413-1.997 0.8-3.23 1.16v0c-0.427 0.133-0.813 0.23-1.16 0.29-0.353 0.067-0.677 0.1-0.97 0.1v0c-0.86 0-1.49-0.24-1.89-0.72-0.4-0.48-0.6-1.15-0.6-2.01v0c0-0.113 0.003-0.223 0.01-0.33 0.013-0.107 0.027-0.227 0.04-0.36v0c0.033-0.5 0.167-1.053 0.4-1.66 0.24-0.6 0.527-1.217 0.86-1.85 0.333-0.64 0.687-1.273 1.06-1.9 0.373-0.627 0.72-1.22 1.04-1.78 0.313-0.56 0.577-1.06 0.79-1.5 0.213-0.44 0.32-0.797 0.32-1.07v0c0-0.247-0.07-0.457-0.21-0.63-0.14-0.167-0.347-0.25-0.62-0.25v0c-1.04 0-2.03 0.31-2.97 0.93-0.933 0.613-1.807 1.373-2.62 2.28-0.813 0.9-1.563 1.857-2.25 2.87-0.68 1.007-1.283 1.91-1.81 2.71v0c-0.32 0.533-0.617 1.107-0.89 1.72-0.267 0.607-0.547 1.177-0.84 1.71-0.293 0.527-0.623 0.967-0.99 1.32-0.367 0.347-0.827 0.52-1.38 0.52v0c-0.567 0-1.013-0.18-1.34-0.54-0.327-0.353-0.49-0.793-0.49-1.32v0c0-0.273 0.113-0.72 0.34-1.34 0.233-0.62 0.527-1.337 0.88-2.15 0.36-0.813 0.763-1.687 1.21-2.62 0.447-0.933 0.893-1.86 1.34-2.78 0.447-0.92 0.877-1.787 1.29-2.6 0.407-0.813 0.74-1.507 1-2.08zM212.26-17.75v0c0.713 0 1.34 0.09 1.88 0.27 0.533 0.18 0.987 0.377 1.36 0.59v0c0.427 0.26 0.803 0.543 1.13 0.85v0c0.227-0.147 0.47-0.287 0.73-0.42v0c0.227-0.113 0.48-0.213 0.76-0.3 0.273-0.087 0.55-0.13 0.83-0.13v0c0.713 0 1.267 0.143 1.66 0.43 0.387 0.293 0.58 0.643 0.58 1.05v0c0 0.213-0.057 0.427-0.17 0.64v0l-5.71 10.81 0.46-0.41c1.92-1.12 3.5-2.003 4.74-2.65 1.233-0.64 2.217-1.117 2.95-1.43 0.733-0.307 1.26-0.497 1.58-0.57 0.313-0.073 0.51-0.11 0.59-0.11v0c0.38 0 0.67 0.143 0.87 0.43 0.207 0.28 0.31 0.633 0.31 1.06v0c0 0.473-0.137 0.953-0.41 1.44-0.267 0.487-0.677 0.837-1.23 1.05v0c-0.733 0.373-1.587 0.777-2.56 1.21-0.98 0.427-1.997 0.903-3.05 1.43-1.06 0.52-2.123 1.1-3.19 1.74-1.067 0.647-2.063 1.36-2.99 2.14v0l-4.74 8.57c-0.387 0.927-0.74 1.683-1.06 2.27-0.32 0.587-0.633 1.05-0.94 1.39-0.307 0.34-0.623 0.577-0.95 0.71-0.327 0.127-0.7 0.19-1.12 0.19v0c-0.64 0-1.143-0.22-1.51-0.66-0.367-0.44-0.55-0.967-0.55-1.58v0c0-0.653 0.157-1.41 0.47-2.27 0.307-0.867 0.74-1.8 1.3-2.8 0.567-1 1.247-2.05 2.04-3.15 0.8-1.1 1.687-2.22 2.66-3.36v0l3.03-3.85c-0.62 0.567-1.23 1.053-1.83 1.46-0.6 0.407-1.177 0.737-1.73 0.99-0.553 0.253-1.07 0.437-1.55 0.55-0.48 0.113-0.9 0.17-1.26 0.17v0c-0.653 0-1.257-0.15-1.81-0.45-0.553-0.3-1.03-0.72-1.43-1.26-0.393-0.533-0.707-1.167-0.94-1.9-0.227-0.733-0.34-1.533-0.34-2.4v0c0-1.787 0.347-3.403 1.04-4.85 0.693-1.453 1.58-2.687 2.66-3.7 1.087-1.02 2.283-1.807 3.59-2.36 1.313-0.553 2.597-0.83 3.85-0.83zM211.33-13.45v0c-0.767 0-1.507 0.19-2.22 0.57-0.72 0.387-1.357 0.893-1.91 1.52-0.553 0.627-0.993 1.347-1.32 2.16-0.32 0.813-0.48 1.65-0.48 2.51v0c0 0.26 0.02 0.54 0.06 0.84 0.04 0.3 0.13 0.583 0.27 0.85 0.133 0.26 0.337 0.473 0.61 0.64 0.267 0.173 0.637 0.26 1.11 0.26v0c0.34 0 0.74-0.15 1.2-0.45 0.467-0.3 0.95-0.683 1.45-1.15 0.493-0.467 0.977-0.98 1.45-1.54 0.473-0.56 0.9-1.11 1.28-1.65 0.38-0.533 0.687-1.017 0.92-1.45 0.227-0.433 0.34-0.753 0.34-0.96v0c0-0.36-0.1-0.673-0.3-0.94-0.193-0.273-0.433-0.5-0.72-0.68-0.28-0.173-0.58-0.307-0.9-0.4-0.32-0.087-0.6-0.13-0.84-0.13z" fill="#fc76ae" fill-rule="nonzero" stroke="none" stroke-width="1" stroke-linecap="butt" stroke-linejoin="miter" stroke-miterlimit="10" stroke-dasharray="" stroke-dashoffset="0" font-family="none" font-weight="none" font-size="none" text-anchor="none" style="mix-blend-mode: normal" data-fill-palette-color="quaternary" opacity="1"></path></g></svg></g></svg></g></svg></g></svg></g><g transform="matrix(1,0,0,1,55.86243269240106,0)"><svg viewBox="0 0 101.433575842355 102.70149554038443" height="102.70149554038443" width="101.433575842355"><g><svg xmlns="http://www.w3.org/2000/svg" xmlns:xlink="http://www.w3.org/1999/xlink" version="1.1" x="0" y="0" viewBox="10 9.5 80 81" style="enable-background:new 0 0 100 100;" xml:space="preserve" height="102.70149554038443" width="101.433575842355" class="icon-icon-0" data-fill-palette-color="quaternary" id="icon-0"><g fill="#fc76ae" data-fill-palette-color="quaternary"><path d="M82.9 34.6C85.7 32 87.5 28.2 87.5 24 87.5 16 81 9.5 73 9.5S58.5 16 58.5 24C58.5 28.2 60.3 31.9 63.1 34.6 59.1 35.1 56 38.4 56 42.5V43.4C54.4 42.8 52.8 42.5 51 42.5 48.1 42.5 45.4 43.4 43.1 44.9 41.9 42.6 39.6 40.9 36.9 40.6 39.7 38 41.5 34.2 41.5 30 41.5 22 35 15.5 27 15.5S12.5 22 12.5 30C12.5 34.2 14.3 37.9 17.1 40.6 13.1 41.1 10 44.4 10 48.5V81.5C10 82.6 10.9 83.5 12 83.5S14 82.6 14 81.5V48.5C14 46.3 15.8 44.5 18 44.5H36C37.9 44.5 39.5 45.9 39.9 47.7 37.8 50.2 36.5 53.5 36.5 57 36.5 61.2 38.3 64.9 41.1 67.6 37.1 68.1 34 71.4 34 75.5V88.5C34 89.6 34.9 90.5 36 90.5S38 89.6 38 88.5V75.5C38 73.3 39.8 71.5 42 71.5H60C62.2 71.5 64 73.3 64 75.5V88.5C64 89.6 64.9 90.5 66 90.5S68 89.6 68 88.5V75.5C68 71.4 64.9 68 60.9 67.6 63.7 65 65.5 61.2 65.5 57 65.5 52.4 63.3 48.3 60 45.6V42.5C60 40.3 61.8 38.5 64 38.5H82C84.2 38.5 86 40.3 86 42.5V75.5C86 76.6 86.9 77.5 88 77.5S90 76.6 90 75.5V42.5C90 38.4 86.9 35 82.9 34.6M16.5 30C16.5 24.2 21.2 19.5 27 19.5S37.5 24.2 37.5 30 32.8 40.5 27 40.5 16.5 35.8 16.5 30M61.5 57C61.5 62.8 56.8 67.5 51 67.5S40.5 62.8 40.5 57C40.5 54.4 41.4 52.1 43 50.2 43.3 50 43.6 49.7 43.8 49.4 45.7 47.6 48.2 46.5 51 46.5 56.8 46.5 61.5 51.2 61.5 57M62.5 24C62.5 18.2 67.2 13.5 73 13.5S83.5 18.2 83.5 24 78.8 34.5 73 34.5 62.5 29.8 62.5 24" fill="#fc76ae" data-fill-palette-color="quaternary"></path></g></svg></g></svg></g><g></g></svg></g></svg></g></svg></g></svg></g><defs></defs></svg><rect width="333.90454557049503" height="333.90454557049503" fill="none" stroke="none" visibility="hidden"></rect></g></svg></g></svg>