<?xml version="1.0" encoding="UTF-8"?>
<svg version="1.1" xmlns="http://www.w3.org/2000/svg" width="192" height="192">
<path d="M0 0 C0.96564377 -0.0071553 1.93128754 -0.01431061 2.92619324 -0.02168274 C4.50572784 -0.02571609 4.50572784 -0.02571609 6.11717224 -0.02983093 C7.78866585 -0.03968773 7.78866585 -0.03968773 9.493927 -0.04974365 C13.18531869 -0.06946862 16.87666966 -0.08113895 20.56809998 -0.09111023 C21.83047926 -0.09518576 23.09285854 -0.09926128 24.39349174 -0.10346031 C30.38906889 -0.12216981 36.38462146 -0.13673432 42.38022 -0.14507228 C49.27788701 -0.15482536 56.17523147 -0.18109689 63.07278496 -0.22157317 C69.06460233 -0.25551468 75.05626468 -0.2672291 81.04818535 -0.27127647 C83.58737814 -0.2761355 86.12656767 -0.28772983 88.6656971 -0.30631447 C92.22920698 -0.33077086 95.79188465 -0.3297282 99.35545349 -0.32279968 C100.39430695 -0.33560974 101.4331604 -0.3484198 102.50349426 -0.36161804 C115.27025355 -0.27165294 126.80355042 5.10534439 136.31419373 13.52217102 C143.39381575 20.93342504 149.2838037 32.65788927 149.33636475 42.95797729 C149.3470977 44.40644295 149.3470977 44.40644295 149.35804749 45.88417053 C149.36073639 46.9371936 149.36342529 47.99021667 149.36619568 49.07514954 C149.37276688 50.18947861 149.37933807 51.30380768 149.3861084 52.4519043 C149.40583337 56.14329598 149.4175037 59.83464696 149.42747498 63.52607727 C149.4315505 64.78845655 149.43562603 66.05083584 149.43982506 67.35146904 C149.45853456 73.34704618 149.47309907 79.34259875 149.48143703 85.33819729 C149.4911901 92.2358643 149.51746164 99.13320876 149.55793792 106.03076226 C149.59187942 112.02257963 149.60359384 118.01424198 149.60764122 124.00616264 C149.61250025 126.54535544 149.62409458 129.08454496 149.64267921 131.62367439 C149.6671356 135.18718427 149.66609295 138.74986194 149.65916443 142.31343079 C149.67837952 143.87171097 149.67837952 143.87171097 149.69798279 145.46147156 C149.60801768 158.22823084 144.23102035 169.76152772 135.81419373 179.27217102 C128.40293971 186.35179305 116.67847548 192.24178099 106.37838745 192.29434204 C104.9299218 192.305075 104.9299218 192.305075 103.45219421 192.31602478 C102.39917114 192.31871368 101.34614807 192.32140259 100.26121521 192.32417297 C99.14688614 192.33074417 98.03255707 192.33731537 96.88446045 192.34408569 C93.19306876 192.36381066 89.50171779 192.37548099 85.81028748 192.38545227 C84.54790819 192.3895278 83.28552891 192.39360332 81.98489571 192.39780235 C75.98931856 192.41651185 69.99376599 192.43107636 63.99816746 192.43941432 C57.10050044 192.4491674 50.20315598 192.47543893 43.30560249 192.51591522 C37.31378512 192.54985672 31.32212277 192.56157114 25.3302021 192.56561852 C22.79100931 192.57047755 20.25181978 192.58207187 17.71269035 192.60065651 C14.14918047 192.6251129 10.5865028 192.62407024 7.02293396 192.61714172 C5.46465378 192.63635681 5.46465378 192.63635681 3.87489319 192.65596008 C-8.89186609 192.56599498 -20.42516297 187.18899765 -29.93580627 178.77217102 C-37.0154283 171.360917 -42.90541625 159.63645277 -42.95797729 149.33636475 C-42.9651326 148.37072098 -42.9722879 147.40507721 -42.97966003 146.41017151 C-42.98234894 145.35714844 -42.98503784 144.30412537 -42.98780823 143.2191925 C-42.99437943 142.10486343 -43.00095062 140.99053436 -43.00772095 139.84243774 C-43.02744592 136.15104606 -43.03911625 132.45969509 -43.04908752 128.76826477 C-43.05316305 127.50588549 -43.05723858 126.2435062 -43.06143761 124.942873 C-43.08014711 118.94729586 -43.09471162 112.95174329 -43.10304958 106.95614475 C-43.11280265 100.05847774 -43.13907419 93.16113328 -43.17955047 86.26357979 C-43.21349197 80.27176241 -43.22520639 74.28010007 -43.22925377 68.2881794 C-43.2341128 65.7489866 -43.24570713 63.20979708 -43.26429176 60.67066765 C-43.28874815 57.10715777 -43.2877055 53.5444801 -43.28077698 49.98091125 C-43.29358704 48.9420578 -43.30639709 47.90320435 -43.31959534 46.83287048 C-43.22963023 34.0661112 -37.8526329 22.53281432 -29.43580627 13.02217102 C-22.02455226 5.94254899 -10.30008802 0.05256105 0 0 Z " fill="#314F75" transform="translate(42.81080627441406,-0.1471710205078125)"/>
<path d="M0 0 C1.16789062 -0.02900391 2.33578125 -0.05800781 3.5390625 -0.08789062 C10.31345763 -0.13781531 14.87691193 0.00375314 20.25 4.3125 C23.71759875 8.7258075 23.70350835 12.59417636 23.68359375 17.97265625 C23.6888356 18.79954453 23.69407745 19.6264328 23.69947815 20.4783783 C23.70588273 22.22068156 23.70458163 23.96302815 23.69604492 25.70532227 C23.68751573 28.37008402 23.71634651 31.03271439 23.74804688 33.69726562 C23.7496586 35.39322853 23.74908191 37.08919522 23.74609375 38.78515625 C23.76294472 39.97746605 23.76294472 39.97746605 23.78013611 41.19386292 C23.73644182 44.6608629 23.51075896 46.91365374 21.59399414 49.84545898 C18.63829467 51.69534943 16.67461699 51.62382882 13.25 51.3125 C13.27094727 52.53356445 13.29189453 53.75462891 13.31347656 55.01269531 C13.38590159 59.54496524 13.43180888 64.07718407 13.46972656 68.60986328 C13.48983632 70.57121381 13.51712818 72.53250444 13.55175781 74.49365234 C13.60030421 77.31362695 13.62297486 80.13280865 13.640625 82.953125 C13.66127014 83.82930481 13.68191528 84.70548462 13.70318604 85.60821533 C13.70541345 91.65773363 13.70541345 91.65773363 11.47363281 94.86645508 C8.06943327 97.08023131 4.66935121 96.85314082 0.75 96.75 C-0.00925781 96.75708984 -0.76851562 96.76417969 -1.55078125 96.77148438 C-4.55800168 96.73725157 -7.18499732 96.5499649 -9.97363281 95.37792969 C-12.90978168 91.96399079 -12.23996248 88.1779975 -12.140625 83.83203125 C-12.13496521 82.90404221 -12.12930542 81.97605316 -12.12347412 81.01994324 C-12.10107376 78.05443854 -12.05087073 75.0901398 -12 72.125 C-11.97993973 70.11525182 -11.96168813 68.10548471 -11.9453125 66.09570312 C-11.90119696 61.16750371 -11.83214424 56.24020635 -11.75 51.3125 C-12.843125 51.395 -13.93625 51.4775 -15.0625 51.5625 C-18.75 51.3125 -18.75 51.3125 -20.65600586 49.87060547 C-22.28567697 46.05991726 -22.23749311 42.49035595 -22.25390625 38.3828125 C-22.26389145 37.51486053 -22.27387665 36.64690857 -22.28416443 35.75265503 C-22.29933334 33.91864785 -22.3063906 32.08455812 -22.3059082 30.25048828 C-22.31246285 27.45335494 -22.36693254 24.65978549 -22.42382812 21.86328125 C-22.43263235 20.07813709 -22.43858512 18.29297614 -22.44140625 16.5078125 C-22.4629628 15.67637726 -22.48451935 14.84494202 -22.50672913 13.98831177 C-22.45493309 9.56923105 -22.01669196 7.05058756 -18.89428711 3.80029297 C-13.53642712 -1.00154542 -6.78549057 0.05543701 0 0 Z " fill="#FDFDFD" transform="translate(53.75,63.6875)"/>
<path d="M0 0 C6.63929295 3.15473963 8.18270245 9.94978264 10.51708984 16.43286133 C11.89653897 20.32673886 13.22743785 24.23597096 14.54223633 28.15209961 C15.37411219 30.61832364 16.22498328 33.07749486 17.07617188 35.53710938 C17.60925489 37.11678912 18.14119656 38.69685459 18.671875 40.27734375 C18.92697342 41.0055986 19.18207184 41.73385345 19.44490051 42.48417664 C20.87619242 46.8347171 21.36793752 49.99752353 20.05859375 54.421875 C18.05859375 56.421875 18.05859375 56.421875 15.45703125 56.6171875 C13.96042969 56.58238281 13.96042969 56.58238281 12.43359375 56.546875 C11.43070313 56.52882812 10.4278125 56.51078125 9.39453125 56.4921875 C8.23824219 56.45738281 8.23824219 56.45738281 7.05859375 56.421875 C7.07954102 57.46118164 7.10048828 58.50048828 7.12207031 59.57128906 C7.19455049 63.43263942 7.24042206 67.29392983 7.27832031 71.15576172 C7.29841768 72.82611202 7.32570058 74.49639213 7.36035156 76.16650391 C7.40895494 78.5695122 7.43158031 80.97158934 7.44921875 83.375 C7.46986389 84.11993713 7.49050903 84.86487427 7.51177979 85.63238525 C7.51320239 88.93045094 7.26901251 91.08202936 5.51855469 93.90917969 C2.14163709 95.985736 -0.86148065 95.86011331 -4.69140625 95.671875 C-5.38878906 95.65382813 -6.08617187 95.63578125 -6.8046875 95.6171875 C-8.51752164 95.57026054 -10.22964449 95.49852105 -11.94140625 95.421875 C-11.94505188 94.72553955 -11.94869751 94.0292041 -11.95245361 93.31176758 C-11.99045881 86.72115666 -12.04745199 80.13100806 -12.12530899 73.54074097 C-12.164671 70.15328144 -12.19691391 66.76607745 -12.21240234 63.37841797 C-12.23388457 59.47581334 -12.28056629 55.57418551 -12.33203125 51.671875 C-12.33325989 50.46635986 -12.33448853 49.26084473 -12.33575439 48.01879883 C-12.45629117 41.04662676 -13.10242864 36.31257095 -16.94140625 30.421875 C-18.02074171 29.5566216 -19.12573201 28.72240692 -20.25390625 27.921875 C-22.94140625 25.421875 -22.94140625 25.421875 -23.12890625 21.921875 C-21.35631741 13.70208252 -19.10623875 5.30491371 -11.94140625 0.421875 C-8.19207864 -1.45278881 -3.94220831 -1.17393728 0 0 Z " fill="#FBFCFC" transform="translate(139.94140625,64.578125)"/>
<path d="M0 0 C0.79921875 -0.02900391 1.5984375 -0.05800781 2.421875 -0.08789062 C7.8568193 -0.14599447 10.95237288 0.67032859 15.25 4.3125 C17.35668827 8.52587655 16.4793798 14.05826533 16.5 18.6875 C16.520625 19.83734375 16.54125 20.9871875 16.5625 22.171875 C16.57023437 23.83089844 16.57023437 23.83089844 16.578125 25.5234375 C16.59214355 27.04396729 16.59214355 27.04396729 16.60644531 28.59521484 C16.19631187 31.7217801 15.48935274 33.11184727 13.25 35.3125 C12.26 35.3125 11.27 35.3125 10.25 35.3125 C10.27618408 35.95799805 10.30236816 36.60349609 10.3293457 37.26855469 C10.43342439 40.19962117 10.4983581 43.13029909 10.5625 46.0625 C10.60439453 47.07828125 10.64628906 48.0940625 10.68945312 49.140625 C10.81262008 56.62917596 10.81262008 56.62917596 8.046875 59.98828125 C5.14953626 61.36006593 3.37152611 61.82381823 0.1875 61.75 C-0.64910156 61.74871094 -1.48570313 61.74742187 -2.34765625 61.74609375 C-5.30872252 61.2116574 -6.58581503 60.39746966 -8.75 58.3125 C-9.20410156 55.8605957 -9.20410156 55.8605957 -9.140625 52.98828125 C-9.12773438 51.96025391 -9.11484375 50.93222656 -9.1015625 49.87304688 C-9.06804687 48.80119141 -9.03453125 47.72933594 -9 46.625 C-8.98195313 45.54154297 -8.96390625 44.45808594 -8.9453125 43.34179688 C-8.89813508 40.66447854 -8.83232249 37.98893091 -8.75 35.3125 C-9.53375 35.209375 -10.3175 35.10625 -11.125 35 C-13.75 34.3125 -13.75 34.3125 -15.75 31.3125 C-16.24068223 27.39134296 -16.1665342 23.44855833 -16.1875 19.5 C-16.22037109 18.41912109 -16.25324219 17.33824219 -16.28710938 16.22460938 C-16.3473381 7.30528218 -16.3473381 7.30528218 -13.34765625 3.61328125 C-9.05353034 -0.19008741 -5.52836567 0.06560561 0 0 Z " fill="#FCFCFD" transform="translate(98.75,98.6875)"/>
<path d="M0 0 C4.69601178 0.07944381 7.44139899 2.16746287 10.73828125 5.3671875 C12.90538654 8.42465387 13.07765741 10.68895742 12.703125 14.359375 C11.8764982 18.26447401 10.88332685 21.14522501 7.73828125 23.75390625 C3.61857636 26.41088446 0.18139962 27.38060707 -4.75 26.5 C-8.01426298 24.36717478 -10.98838293 22.02323414 -12.75 18.5 C-13.25153947 14.11511208 -13.73198224 9.53466721 -11.7734375 5.4765625 C-10.1014118 3.37370809 -8.36596255 1.79736123 -5.9375 0.625 C-3.95063984 0.51146513 -1.97264401 0.2630192 0 0 Z " fill="#F8F9FA" transform="translate(134.75,31.5)"/>
<path d="M0 0 C2.94997568 2.12254348 4.57991392 3.7643023 5.4296875 7.35546875 C5.68412684 12.97857805 4.64687008 16.6167467 0.859375 20.9453125 C-3.60181943 23.91944212 -7.91110045 23.69132171 -13.140625 22.9453125 C-16.81331456 21.09831195 -18.82293978 18.89836816 -20.140625 14.9453125 C-20.63334796 10.8557119 -21.04652574 6.75711398 -19.1640625 2.9921875 C-14.26453207 -3.19985709 -6.81985177 -3.36014594 0 0 Z " fill="#FAFBFC" transform="translate(62.140625,34.0546875)"/>
<path d="M0 0 C3.03978021 0.68164768 4.80055419 2.23591662 6.93359375 4.43359375 C8.38507278 7.3365518 8.305984 9.20621154 7.93359375 12.43359375 C6.12049233 15.36297029 4.06063476 17.87007324 0.93359375 19.43359375 C-2.93854807 19.86383173 -4.59136996 19.75028461 -7.87890625 17.55859375 C-10.8649801 14.65783629 -11.02324444 13.8724055 -11.44140625 9.62109375 C-11.37967942 6.23229105 -11.05507416 5.41659561 -9.06640625 2.43359375 C-5.71397384 0.19863881 -3.9372435 -0.24561254 0 0 Z " fill="#F7F8F9" transform="translate(101.06640625,73.56640625)"/>
<path d="M0 0 C-0.97309748 2.17075592 -1.7275461 3.7609078 -3.53125 5.34375 C-5.4200861 7.47371411 -5.48399034 8.87906664 -5.6875 11.6875 C-5.75324219 12.49574219 -5.81898437 13.30398437 -5.88671875 14.13671875 C-5.92410156 14.75160156 -5.96148437 15.36648437 -6 16 C-6.33 16 -6.66 16 -7 16 C-7.86066329 6.32231944 -7.86066329 6.32231944 -4.625 2.375 C-2 0 -2 0 0 0 Z " fill="#D3DBE4" transform="translate(49,33)"/>
</svg>
